<mxfile host="Electron" modified="2024-02-21T09:24:04.969Z" agent="Mozilla/5.0 (Macintosh; Intel Mac OS X 10_15_7) AppleWebKit/537.36 (KHTML, like Gecko) draw.io/23.1.5 Chrome/120.0.6099.109 Electron/28.1.0 Safari/537.36" etag="Y3w0mPaDH56y7v7-2Ypx" scale="1" border="0" version="23.1.5" type="device">
  <diagram name="AuthZ_2024" id="CmCLXsO1bmZuSrS0k9MP">
    <mxGraphModel dx="1562" dy="998" grid="1" gridSize="10" guides="1" tooltips="1" connect="1" arrows="1" fold="1" page="1" pageScale="1" pageWidth="2336" pageHeight="1654" math="0" shadow="0">
      <root>
        <mxCell id="9CCtWQhPG5mtvw0bM8_H-0" />
        <mxCell id="9CCtWQhPG5mtvw0bM8_H-1" parent="9CCtWQhPG5mtvw0bM8_H-0" />
        <mxCell id="qwzbI1k6aY971nKIEggI-0" value="" style="group" parent="9CCtWQhPG5mtvw0bM8_H-1" vertex="1" connectable="0">
          <mxGeometry x="836.22" y="290" width="194.51999999999998" height="154.12" as="geometry" />
        </mxCell>
        <mxCell id="qwzbI1k6aY971nKIEggI-1" value="" style="rounded=1;whiteSpace=wrap;html=1;strokeColor=#0070F2;strokeWidth=1.5;arcSize=16;fillColor=#FFFFFF;perimeterSpacing=0;absoluteArcSize=1;" parent="qwzbI1k6aY971nKIEggI-0" vertex="1">
          <mxGeometry width="189" height="154.12" as="geometry" />
        </mxCell>
        <mxCell id="qwzbI1k6aY971nKIEggI-2" value="&lt;font face=&quot;arial&quot; style=&quot;font-size: 16px;&quot;&gt;&lt;b style=&quot;font-size: 16px;&quot;&gt;SAP On-Premise &lt;br&gt;Solutions&lt;/b&gt;&lt;/font&gt;" style="text;html=1;align=left;verticalAlign=middle;resizable=0;points=[];autosize=1;strokeColor=none;fillColor=none;fontSize=12;fontColor=#1d2d3e;fontFamily=Helvetica;" parent="qwzbI1k6aY971nKIEggI-0" vertex="1">
          <mxGeometry x="44.51999999999998" y="9.819999999999993" width="150" height="50" as="geometry" />
        </mxCell>
        <mxCell id="qwzbI1k6aY971nKIEggI-3" value="" style="shape=image;verticalLabelPosition=bottom;labelBackgroundColor=default;verticalAlign=top;aspect=fixed;imageAspect=0;image=data:image/svg+xml,PHN2ZyB4bWxucz0iaHR0cDovL3d3dy53My5vcmcvMjAwMC9zdmciIGZpbGw9Im5vbmUiIHZpZXdCb3g9IjAgMCAxNiAxNyIgaGVpZ2h0PSIxNyIgd2lkdGg9IjE2Ij4mI3hhOzxwYXRoIGZpbGw9InVybCgjcGFpbnQwX2xpbmVhcl83MjRfMTIpIiBkPSJNMTQuMzMzNSA1LjgzNDk0QzE0LjU4MzUgNi4wODQ5NCAxNC43ODE0IDYuMzc2NjEgMTQuOTI3MiA2LjcwOTk0QzE1LjA5MzkgNy4wMjI0NCAxNS4xNzcyIDcuMzY2MTkgMTUuMTc3MiA3Ljc0MTE5VjE0LjQyODdDMTUuMTc3MiAxNS4xMzcgMTQuOTM3NiAxNS43MjA0IDE0LjQ1ODUgMTYuMTc4N0MxMy45NzkzIDE2LjY1NzkgMTMuMzg1NSAxNi44OTc1IDEyLjY3NzIgMTYuODk3NUgyLjc3MDk0QzIuMDgzNDQgMTYuODk3NSAxLjUwMDExIDE2LjY1NzkgMS4wMjA5NCAxNi4xNzg3QzAuNTQxNzY4IDE1LjcyMDQgMC4zMDIxODUgMTUuMTM3IDAuMzAyMTg1IDE0LjQyODdWNy43NDExOUMwLjMwMjE4NSA2Ljk0OTUyIDAuNTgzNDM1IDYuMzE0MTEgMS4xNDU5NCA1LjgzNDk0TDYuMDgzNDQgMS41NTM2OUM2LjU4MzQ0IDEuMTM3MDIgNy4xNDU5NCAwLjkyODY4OCA3Ljc3MDk0IDAuOTI4Njg4QzguMzk1OTQgMC45Mjg2ODggOC45Mzc2MSAxLjEzNzAyIDkuMzk1OTQgMS41NTM2OUwxNC4zMzM1IDUuODM0OTRaTTguOTg5NjkgMTAuMzAzN0g2LjQ4OTY5VjE1LjI3MjVIOC45ODk2OVYxMC4zMDM3Wk0xMy40MjcyIDcuNzQxMTlDMTMuNDI3MiA3LjQ3MDM2IDEzLjM0MzkgNy4yNTE2MSAxMy4xNzcyIDcuMDg0OTRMOC4yMzk2OSAyLjgwMzY5QzcuODg1NTIgMi41MzI4NiA3LjUyMDk0IDIuNTMyODYgNy4xNDU5NCAyLjgwMzY5TDIuMjA4NDQgNy4wODQ5NEMyLjA0MTc3IDcuMjUxNjEgMS45NTg0NCA3LjQ3MDM2IDEuOTU4NDQgNy43NDExOVYxNC40Mjg3QzEuOTU4NDQgMTQuNjc4NyAyLjAzMTM2IDE0Ljg4NyAyLjE3NzE5IDE1LjA1MzdDMi4zNDM4NiAxNS4xOTk1IDIuNTQxNzcgMTUuMjcyNSAyLjc3MDk0IDE1LjI3MjVINC44MzM0NFYxMC4zMDM3QzQuODMzNDQgOS44NDUzNiA0Ljk4OTY5IDkuNDU5OTQgNS4zMDIxOSA5LjE0NzQ0QzUuNjM1NTIgOC44MTQxMSA2LjAzMTM2IDguNjQ3NDQgNi40ODk2OSA4LjY0NzQ0SDguOTg5NjlDOS40NDgwMiA4LjY0NzQ0IDkuODMzNDkgOC44MTQxMSAxMC4xNDU5IDkuMTQ3NDRDMTAuNDU4NSA5LjQ1OTk0IDEwLjYxNDcgOS44NDUzNiAxMC42MTQ3IDEwLjMwMzdWMTUuMjcyNUgxMi42NzcyQzEyLjkyNzIgMTUuMjcyNSAxMy4xMjUxIDE1LjE5OTUgMTMuMjcwOSAxNS4wNTM3QzEzLjQzNzYgMTQuODg3IDEzLjUyMDkgMTQuNjc4NyAxMy41MjA5IDE0LjQyODdMMTMuNDI3MiA3Ljc0MTE5WiIvPiYjeGE7PGRlZnM+JiN4YTs8bGluZWFyR3JhZGllbnQgZ3JhZGllbnRVbml0cz0idXNlclNwYWNlT25Vc2UiIHkyPSI5Ljg1NDkiIHgyPSIxNS44MTkzIiB5MT0iMi40MzA4NCIgeDE9IjIuMjI0NjQiIGlkPSJwYWludDBfbGluZWFyXzcyNF8xMiI+JiN4YTs8c3RvcCBzdG9wLWNvbG9yPSIjMjM5NUZGIi8+JiN4YTs8c3RvcCBzdG9wLWNvbG9yPSIjMDA1N0QyIiBvZmZzZXQ9IjEiLz4mI3hhOzwvbGluZWFyR3JhZGllbnQ+JiN4YTs8L2RlZnM+JiN4YTs8L3N2Zz4=;strokeWidth=1.5;" parent="qwzbI1k6aY971nKIEggI-0" vertex="1">
          <mxGeometry x="8" y="9.82000000000005" width="28.24" height="30" as="geometry" />
        </mxCell>
        <mxCell id="qwzbI1k6aY971nKIEggI-4" value="" style="rounded=1;whiteSpace=wrap;html=1;strokeColor=#0070F2;fillColor=#EBF8FF;arcSize=32;absoluteArcSize=1;imageWidth=64;imageHeight=64;strokeWidth=1.5;" parent="9CCtWQhPG5mtvw0bM8_H-1" vertex="1">
          <mxGeometry x="350" y="80" width="400" height="540" as="geometry" />
        </mxCell>
        <mxCell id="qwzbI1k6aY971nKIEggI-5" value="" style="rounded=1;whiteSpace=wrap;html=1;strokeColor=#0070F2;strokeWidth=1.5;arcSize=16;fillColor=#FFFFFF;perimeterSpacing=0;absoluteArcSize=1;" parent="9CCtWQhPG5mtvw0bM8_H-1" vertex="1">
          <mxGeometry x="371.22" y="134.13" width="356.22" height="325.87" as="geometry" />
        </mxCell>
        <mxCell id="qwzbI1k6aY971nKIEggI-27" value="" style="group" parent="9CCtWQhPG5mtvw0bM8_H-1" vertex="1" connectable="0">
          <mxGeometry x="386.22" y="350" width="110" height="95" as="geometry" />
        </mxCell>
        <mxCell id="qwzbI1k6aY971nKIEggI-28" value="" style="shape=image;verticalLabelPosition=bottom;verticalAlign=top;imageAspect=0;aspect=fixed;image=data:image/svg+xml,PHN2ZyB4bWxucz0iaHR0cDovL3d3dy53My5vcmcvMjAwMC9zdmciIGZpbGw9Im5vbmUiIHZpZXdCb3g9IjAgMCA0OSA0OSIgaGVpZ2h0PSI0OSIgd2lkdGg9IjQ5Ij4mI3hhOzxjaXJjbGUgc3Ryb2tlLXdpZHRoPSIwLjg1NzE0MyIgc3Ryb2tlPSIjRDVEQUREIiBmaWxsPSJ1cmwoI3BhaW50MF9saW5lYXJfMjYyMl8yMDQ3NSkiIHI9IjIzLjU3MTQiIGN5PSIyNC4wMzQ5IiBjeD0iMjQuNSIvPiYjeGE7PHBhdGggZmlsbD0idXJsKCNwYWludDFfcmFkaWFsXzI2MjJfMjA0NzUpIiBkPSJNMjQuMzkzMSAxMi4yMzcxQzIwLjExMDcgMTIuMjM3MSAxNy4wNjgxIDE1LjcyMzEgMTYuNTYxMSAxOS4zNjI1QzE1LjE4MzYgMTkuNDQ0NCAxMy45NjcyIDE5Ljk2MjEgMTMuMDIyNSAyMC44MzE3QzExLjc0NDUgMjIuMDA4MSAxMS4wODQ0IDIzLjcxNTYgMTEuMDg0NCAyNS41MTYzQzExLjA4NDQgMjcuMTg5NyAxMS41OTIgMjguNzcxNSAxMi43MzE2IDI5Ljk0MDlDMTMuNTg2MSAzMC44MTc4IDE0LjcwNzcgMzEuMzcyNCAxNi4wMTcgMzEuNTk4NEMxNi4xMzc2IDMxLjM1MzUgMTYuMjczNSAzMS4xMTY4IDE2LjQyNTIgMzAuODg5MkwxNi40NDEgMzAuODY1NUwxNi40NTQ4IDMwLjg0NjFDMTYuNzA2OSAzMC40OTAxIDE2Ljk5NDggMzAuMTY2IDE3LjMxNjkgMjkuODc2MUMxNy4xODMxIDI5LjQzMTcgMTcuMTE4IDI4Ljk2NDUgMTcuMTE4IDI4LjQ4MzVDMTcuMTE4IDI3Ljg1NDkgMTcuMjM4NiAyNy4yNDEzIDE3LjQ4NDkgMjYuNjU5MkMxNy43MiAyNi4xMDMzIDE4LjA1MTMgMjUuNjAwMSAxOC40ODI0IDI1LjE2OTFDMTguOTE4IDI0LjczMzQgMTkuNDI1IDI0LjM5MTYgMTkuOTkyNiAyNC4xNTE1QzIwLjU3NDcgMjMuOTA1MiAyMS4xODgyIDIzLjc4NDYgMjEuODE2OCAyMy43ODQ2QzIyLjA3NTkgMjMuNzg0NiAyMi4zMzI0IDIzLjgwNTEgMjIuNTg1MyAyMy44NDY0QzIyLjkwNjUgMjMuNjE3OSAyMy4yNTIyIDIzLjQyNTEgMjMuNjIwNCAyMy4yNjkzQzI0LjI4NTEgMjIuOTg4MSAyNC45ODYzIDIyLjg0OTcgMjUuNzA4OSAyMi44NDk3QzI2LjQzMTYgMjIuODQ5NyAyNy4xMzI3IDIyLjk4ODEgMjcuNzk3NSAyMy4yNjkzQzI4LjQ0MzYgMjMuNTQyNyAyOS4wMTc2IDIzLjkzMjYgMjkuNTA0MyAyNC40MzY1QzMwLjAwODIgMjQuOTIzMiAzMC4zOTgxIDI1LjQ5NzIgMzAuNjcxNSAyNi4xNDMzQzMwLjk1MjcgMjYuODA4MSAzMS4wOTExIDI3LjUwOTMgMzEuMDkxMSAyOC4yMzE5QzMxLjA5MTEgMjguOTI1MiAzMC45NjM3IDI5LjU5ODggMzAuNzA1IDMwLjIzOTVDMzEuMTk2OSAzMC42Mjg4IDMxLjYzNDYgMzEuMDg3NyAzMi4wMTUyIDMxLjYxMjdDMzUuMjc5MiAzMS4wNDI2IDM3Ljk5OTkgMjguMzY4IDM3Ljk5OTkgMjQuMzU5MUMzNy45OTk5IDIwLjM3NTEgMzUuMTUyNiAxNy4zMTM1IDMxLjcyNDcgMTYuOTg5N0MzMC4zNTA3IDE0LjE0ODMgMjcuOCAxMi4yMzcxIDI0LjM5MzEgMTIuMjM3MVoiIGNsaXAtcnVsZT0iZXZlbm9kZCIgZmlsbC1ydWxlPSJldmVub2RkIi8+JiN4YTs8cGF0aCBmaWxsPSJ1cmwoI3BhaW50Ml9yYWRpYWxfMjYyMl8yMDQ3NSkiIGQ9Ik0yOC4zMzY4IDMwLjgwNzhDMjkuMzA4MiAzMS4xODk0IDMwLjA5NzQgMzEuODEzOCAzMC43MDQ1IDMyLjY4MTFDMzEuMzExNiAzMy41NDg0IDMxLjYxNTIgMzQuNTI4NSAzMS42MTUyIDM1LjYyMTNWMzcuMTA0NEMzMS42MTUyIDM3LjMxMjUgMzEuNTM3MSAzNy40ODYgMzEuMzgxIDM3LjYyNDdDMzEuMjQyMiAzNy43NjM1IDMxLjA3NzQgMzcuODMyOSAzMC44ODY2IDM3LjgzMjlIMjkuNDAzNkMyOS4xOTU0IDM3LjgzMjkgMjkuMDEzMyAzNy43NjM1IDI4Ljg1NzIgMzcuNjI0N0MyOC43MTg0IDM3LjQ4NiAyOC42NDkgMzcuMzEyNSAyOC42NDkgMzcuMTA0NEMyOC42NDkgMzYuODk2MiAyOC43MTg0IDM2LjcyMjcgMjguODU3MiAzNi41ODRDMjkuMDEzMyAzNi40Mjc5IDI5LjE5NTQgMzYuMzQ5OCAyOS40MDM2IDM2LjM0OThIMzAuMTMyMVYzNS42MjEzQzMwLjEzMjEgMzUuMTE4MiAzMC4wMzY3IDM0LjY0MTIgMjkuODQ1OSAzNC4xOTAyQzI5LjY1NTEgMzMuNzM5MiAyOS4zODYyIDMzLjM0OSAyOS4wMzkzIDMzLjAxOTRDMjguNzA5NyAzMi42NzI1IDI4LjMxOTUgMzIuNDAzNiAyNy44Njg1IDMyLjIxMjhDMjcuNDM0OCAzMi4wMjIgMjYuOTU3OCAzMS45MjY2IDI2LjQzNzUgMzEuOTI2NkgyNC45ODA0QzI0LjQ2IDMxLjkyNjYgMjMuOTc0NCAzMi4wMjIgMjMuNTIzNCAzMi4yMTI4QzIzLjA4OTcgMzIuNDAzNiAyMi42OTk0IDMyLjY3MjUgMjIuMzUyNSAzMy4wMTk0QzIyLjAyMyAzMy4zNDkgMjEuNzYyOCAzMy43MzkyIDIxLjU3MiAzNC4xOTAyQzIxLjM4MTIgMzQuNjQxMiAyMS4yODU4IDM1LjExODIgMjEuMjg1OCAzNS42MjEzVjM2LjM0OThIMjIuMDE0M0MyMi4yMjI0IDM2LjM0OTggMjIuMzk1OSAzNi40Mjc5IDIyLjUzNDcgMzYuNTg0QzIyLjY3MzQgMzYuNzIyNyAyMi43NDI4IDM2Ljg5NjIgMjIuNzQyOCAzNy4xMDQ0QzIyLjc0MjggMzcuMzEyNSAyMi42NzM0IDM3LjQ4NiAyMi41MzQ3IDM3LjYyNDdDMjIuMzk1OSAzNy43NjM1IDIyLjIyMjQgMzcuODMyOSAyMi4wMTQzIDM3LjgzMjlIMjAuNTMxMkMyMC4zNDA0IDM3LjgzMjkgMjAuMTY3IDM3Ljc2MzUgMjAuMDEwOSAzNy42MjQ3QzE5Ljg3MjEgMzcuNDg2IDE5LjgwMjcgMzcuMzEyNSAxOS44MDI3IDM3LjEwNDRMMTkuODAyNyAzNi4wNTAySDE3LjgyMzRDMTcuNjMyOCAzNi4wNTAyIDE3LjQ2MTYgMzUuOTc5NSAxNy4zMTQ2IDM1Ljg0ODhMMTcuMzA3NSAzNS44NDI1QzE3LjE2ODEgMzUuNzAzMSAxNy4wOTk4IDM1LjUyNzEgMTcuMDk5OCAzNS4zMjY1VjM0LjE4MjdDMTcuMDk5OCAzMy43MzkyIDE3LjE2MjEgMzMuMzIxIDE3LjI4ODEgMzIuOTI5MUwxNy4yODkyIDMyLjkyNTlDMTcuNDI3MiAzMi41MjU2IDE3LjYwNzEgMzIuMTU4NiAxNy44MjkzIDMxLjgyNTNMMTcuODMxOCAzMS44MjE1QzE4LjA2NzggMzEuNDg4MyAxOC4zNDU4IDMxLjE5NjQgMTguNjY1MiAzMC45NDYxQzE4LjkyNDIgMzAuNzMyNCAxOS4yMDU5IDMwLjU1NSAxOS41MTAxIDMwLjQxNEMxOS4wMzk4IDI5Ljg4ODUgMTguODA1NSAyOS4yNDE5IDE4LjgwNTUgMjguNDgzNUMxOC44MDU1IDI4LjA3NDUgMTguODgzMiAyNy42ODUxIDE5LjAzOSAyNy4zMTY3QzE5LjE5MzkgMjYuOTUwNyAxOS40MDYgMjYuNjMyIDE5LjY3NTYgMjYuMzYyM0MxOS45NTc5IDI2LjA4MDEgMjAuMjgzIDI1Ljg2MDkgMjAuNjUwMSAyNS43MDU2QzIxLjAxODQgMjUuNTQ5OCAyMS40MDc4IDI1LjQ3MjEgMjEuODE2OCAyNS40NzIxQzIyLjIyNTkgMjUuNDcyMSAyMi42MTUyIDI1LjU0OTggMjIuOTgzNiAyNS43MDU2TDIzLjAwMDggMjUuNzEzQzIzLjAyNzEgMjUuNjg0OSAyMy4wNTM4IDI1LjY1NzMgMjMuMDgxIDI1LjYzQzIzLjQyOCAyNS4yODMxIDIzLjgyNjkgMjUuMDE0MiAyNC4yNzc5IDI0LjgyMzRDMjQuNzI4OSAyNC42MzI2IDI1LjIwNTkgMjQuNTM3MiAyNS43MDg5IDI0LjUzNzJDMjYuMjEyIDI0LjUzNzIgMjYuNjg5IDI0LjYzMjYgMjcuMTQgMjQuODIzNEMyNy41OTA5IDI1LjAxNDIgMjcuOTgxMiAyNS4yODMxIDI4LjMxMDggMjUuNjNDMjguNjU3NyAyNS45NTk2IDI4LjkyNjYgMjYuMzQ5OSAyOS4xMTc0IDI2LjgwMDlDMjkuMzA4MiAyNy4yNTE5IDI5LjQwMzYgMjcuNzI4OSAyOS40MDM2IDI4LjIzMTlDMjkuNDAzNiAyOC43MzQ5IDI5LjMwODIgMjkuMjEyIDI5LjExNzQgMjkuNjYzQzI4LjkyNjYgMzAuMDk2NiAyOC42NjY0IDMwLjQ3ODIgMjguMzM2OCAzMC44MDc4Wk0yMC4wMzY5IDM0LjA2MDFDMTkuOTgyMiAzNC4yMzAxIDE5LjkzNzIgMzQuNDA0MyAxOS45MDE3IDM0LjU4MjdIMTguNTY3MlYzNC4xODI3QzE4LjU2NzIgMzMuODE1NyAxOC42MzY3IDMzLjQ2OTMgMTguNzc1MiAzMy4xNDJDMTguOTE0NiAzMi44MTI0IDE5LjEwMzkgMzIuNTI5IDE5LjM0MjYgMzIuMjkwM0MxOS41OTYyIDMyLjAzNjcgMTkuODgwMyAzMS44NDEyIDIwLjE5NTMgMzEuNzAyNEMyMC41MjE2IDMxLjU2NDUgMjAuODc0MyAzMS40OTQ5IDIxLjI1NDkgMzEuNDk0OUgyMS44NzA4QzIxLjgzMTUgMzEuNTI1NCAyMS43OTI2IDMxLjU1NjYgMjEuNzU0MSAzMS41ODg0QzIxLjM1NTEgMzEuOTAwNiAyMS4wMDgyIDMyLjI2NDggMjAuNzEzNCAzMi42ODExQzIwLjQzNTggMzMuMDk3NCAyMC4yMTAzIDMzLjU1NzEgMjAuMDM2OSAzNC4wNjAxWk0yNS43MDg5IDI2LjAyMDNDMjUuMTAxOCAyNi4wMjAzIDI0LjU4MTUgMjYuMjM3MSAyNC4xNDc4IDI2LjY3MDhDMjMuNzE0MiAyNy4xMDQ0IDIzLjQ5NzMgMjcuNjI0OCAyMy40OTczIDI4LjIzMTlDMjMuNDk3MyAyOC44MzkgMjMuNzE0MiAyOS4zNTk0IDI0LjE0NzggMjkuNzkzQzI0LjU4MTUgMzAuMjI2NyAyNS4xMDE4IDMwLjQ0MzUgMjUuNzA4OSAzMC40NDM1QzI2LjMxNiAzMC40NDM1IDI2LjgzNjQgMzAuMjI2NyAyNy4yNyAyOS43OTNDMjcuNzAzNyAyOS4zNTk0IDI3LjkyMDUgMjguODM5IDI3LjkyMDUgMjguMjMxOUMyNy45MjA1IDI3LjYyNDggMjcuNzAzNyAyNy4xMDQ0IDI3LjI3IDI2LjY3MDhDMjYuODM2NCAyNi4yMzcxIDI2LjMxNiAyNi4wMjAzIDI1LjcwODkgMjYuMDIwM1pNMjIuMDE0MyAyOC4yMzE5QzIyLjAxNDMgMjguODU5NiAyMi4xNDM2IDI5LjQyMTEgMjIuNDAyMyAyOS45MTYzQzIyLjIyMjMgMjkuOTkwNiAyMi4wMjc1IDMwLjAyNzQgMjEuODE2OCAzMC4wMjc0QzIxLjM5MiAzMC4wMjc0IDIxLjAzMTcgMjkuODc3NiAyMC43MjcyIDI5LjU3MzFDMjAuNDIyOCAyOS4yNjg3IDIwLjI3MjkgMjguOTA4MyAyMC4yNzI5IDI4LjQ4MzVDMjAuMjcyOSAyOC4wNTg3IDIwLjQyMjggMjcuNjk4MyAyMC43MjcyIDI3LjM5MzlDMjEuMDMxNyAyNy4wODk0IDIxLjM5MiAyNi45Mzk2IDIxLjgxNjggMjYuOTM5NkMyMS45NjA1IDI2LjkzOTYgMjIuMDk2OSAyNi45NTY3IDIyLjIyNjIgMjYuOTkxMkMyMi4wODQ5IDI3LjM4NTUgMjIuMDE0MyAyNy43OTkxIDIyLjAxNDMgMjguMjMxOVoiIGNsaXAtcnVsZT0iZXZlbm9kZCIgZmlsbC1ydWxlPSJldmVub2RkIi8+JiN4YTs8ZGVmcz4mI3hhOzxsaW5lYXJHcmFkaWVudCBncmFkaWVudFVuaXRzPSJ1c2VyU3BhY2VPblVzZSIgeTI9IjQ0LjI3OTIiIHgyPSI0MS41NjQ1IiB5MT0iNi44NDc3NSIgeDE9IjQuODUyODciIGlkPSJwYWludDBfbGluZWFyXzI2MjJfMjA0NzUiPiYjeGE7PHN0b3Agc3RvcC1jb2xvcj0id2hpdGUiLz4mI3hhOzxzdG9wIHN0b3AtY29sb3I9IiNFQUVDRUUiIG9mZnNldD0iMSIvPiYjeGE7PC9saW5lYXJHcmFkaWVudD4mI3hhOzxyYWRpYWxHcmFkaWVudCBncmFkaWVudFRyYW5zZm9ybT0idHJhbnNsYXRlKDE1LjI1ODMgMTUuOTk1NCkgcm90YXRlKDQzLjg3NzkpIHNjYWxlKDI1Ljg1MjQgNDguODExNykiIGdyYWRpZW50VW5pdHM9InVzZXJTcGFjZU9uVXNlIiByPSIxIiBjeT0iMCIgY3g9IjAiIGlkPSJwYWludDFfcmFkaWFsXzI2MjJfMjA0NzUiPiYjeGE7PHN0b3Agc3RvcC1jb2xvcj0iIzAxOTVGRiIvPiYjeGE7PHN0b3Agc3RvcC1jb2xvcj0iIzExNDdFOSIgb2Zmc2V0PSIxIi8+JiN4YTs8L3JhZGlhbEdyYWRpZW50PiYjeGE7PHJhZGlhbEdyYWRpZW50IGdyYWRpZW50VHJhbnNmb3JtPSJ0cmFuc2xhdGUoMTUuMjUyMiAxNi4wODc2KSByb3RhdGUoNDMuNTYwMikgc2NhbGUoMjUuODcyNyAyMy41NDcxKSIgZ3JhZGllbnRVbml0cz0idXNlclNwYWNlT25Vc2UiIHI9IjEiIGN5PSIwIiBjeD0iMCIgaWQ9InBhaW50Ml9yYWRpYWxfMjYyMl8yMDQ3NSI+JiN4YTs8c3RvcCBzdG9wLWNvbG9yPSIjMTM0OEZGIi8+JiN4YTs8c3RvcCBzdG9wLWNvbG9yPSIjMDYyMzhEIiBvZmZzZXQ9IjEiLz4mI3hhOzwvcmFkaWFsR3JhZGllbnQ+JiN4YTs8L2RlZnM+JiN4YTs8L3N2Zz4=;points=[[0,0,0,0,0],[0,0.25,0,0,0],[0,0.5,0,0,0],[0,0.75,0,0,0],[0.25,0,0,0,0],[0.5,0,0,0,0],[0.75,0,0,0,0],[1,0,0,0,0],[1,0.25,0,0,0],[1,0.5,0,0,0],[1,0.75,0,0,0]];" parent="qwzbI1k6aY971nKIEggI-27" vertex="1">
          <mxGeometry x="30" width="49" height="49" as="geometry" />
        </mxCell>
        <mxCell id="qwzbI1k6aY971nKIEggI-29" value="&lt;font color=&quot;#1d2d3e&quot; size=&quot;1&quot; face=&quot;arial&quot; style=&quot;&quot;&gt;&lt;b style=&quot;font-size: 14px;&quot;&gt;Identity Directory&lt;br&gt;&lt;/b&gt;&lt;/font&gt;" style="text;html=1;align=center;verticalAlign=top;resizable=1;points=[[0,0.5,0,0,0],[0.21,1,0,0,0],[0.5,1,0,0,0],[0.85,1,0,0,0],[1,0.5,0,0,0]];autosize=0;strokeColor=none;fillColor=none;fontSize=12;fontColor=default;fontFamily=Helvetica;fixedWidth=1;imageWidth=24;whiteSpace=wrap;labelBackgroundColor=none;" parent="qwzbI1k6aY971nKIEggI-27" vertex="1">
          <mxGeometry y="49" width="110" height="46" as="geometry" />
        </mxCell>
        <mxCell id="qwzbI1k6aY971nKIEggI-30" value="" style="group" parent="9CCtWQhPG5mtvw0bM8_H-1" vertex="1" connectable="0">
          <mxGeometry x="526.22" y="230" width="110" height="95" as="geometry" />
        </mxCell>
        <mxCell id="qwzbI1k6aY971nKIEggI-31" value="" style="shape=image;verticalLabelPosition=bottom;verticalAlign=top;imageAspect=0;aspect=fixed;image=data:image/svg+xml,PHN2ZyB4bWxucz0iaHR0cDovL3d3dy53My5vcmcvMjAwMC9zdmciIGZpbGw9Im5vbmUiIHZpZXdCb3g9IjAgMCA0OSA0OSIgaGVpZ2h0PSI0OSIgd2lkdGg9IjQ5Ij4mI3hhOzxjaXJjbGUgc3Ryb2tlLXdpZHRoPSIwLjg1NzE0MyIgc3Ryb2tlPSIjRDVEQUREIiBmaWxsPSJ1cmwoI3BhaW50MF9saW5lYXJfMjYyMl8yMDQ3OSkiIHI9IjIzLjU3MTQiIGN5PSIyNC4wMzQ5IiBjeD0iMjQuNSIvPiYjeGE7PHBhdGggZmlsbD0idXJsKCNwYWludDFfcmFkaWFsXzI2MjJfMjA0NzkpIiBkPSJNMTcuNDc2OCAxOS4zNjIzQzE3Ljk4MzcgMTUuNzIzIDIxLjAyNjQgMTIuMjM3IDI1LjMwODggMTIuMjM3QzI4LjcxNTYgMTIuMjM3IDMxLjI2NjMgMTQuMTQ4MSAzMi42NDA0IDE2Ljk4OTZDMzYuMDY4MyAxNy4zMTM0IDM4LjkxNTYgMjAuMzc1IDM4LjkxNTYgMjQuMzU5QzM4LjkxNTYgMjguNjM1MyAzNS44MTk4IDMxLjM5MzQgMzIuMjcxMSAzMS42OTgzVjIyLjcyNTVMMzQuODQwNyAyNS4yOTUyQzM1LjE3MDIgMjUuNjI0NyAzNS43MDQ1IDI1LjYyNDcgMzYuMDM0IDI1LjI5NTJDMzYuMzYzNSAyNC45NjU3IDM2LjM2MzUgMjQuNDMxNCAzNi4wMzQgMjQuMTAxOUwzMi4wMjM5IDIwLjA5MTlDMzEuNjk0NCAxOS43NjI0IDMxLjE2MDIgMTkuNzYyNCAzMC44MzA3IDIwLjA5MTlMMjYuODIwNyAyNC4xMDE5QzI2LjQ5MTIgMjQuNDMxNCAyNi40OTEyIDI0Ljk2NTcgMjYuODIwNyAyNS4yOTUyQzI3LjE1MDIgMjUuNjI0NyAyNy42ODQ0IDI1LjYyNDcgMjguMDEzOSAyNS4yOTUyTDMwLjU4MzYgMjIuNzI1NVYzMS43MTQ2SDI3LjE4MDdDMjcuMTYxNyAzMS42ODY1IDI3LjE0MjQgMzEuNjU4NiAyNy4xMjI5IDMxLjYzMDhDMjYuNzEyMiAzMS4wNDQgMjYuMjMxMSAzMC41MzkgMjUuNjgzNSAzMC4xMjAyTDI1LjY4ODUgMzAuMTA5TDI1LjY5MjggMzAuMDk4OEMyNS45NjYzIDI5LjQ1MjQgMjYuMTAwOSAyOC43NzA0IDI2LjEwMDkgMjguMDY2NUMyNi4xMDA5IDI3LjM2MjcgMjUuOTY2MyAyNi42ODA3IDI1LjY5MjggMjYuMDM0MkMyNS40MjY1IDI1LjQwNDggMjUuMDQ2OSAyNC44NDY1IDI0LjU1NjQgMjQuMzczMkMyNC4wODMxIDIzLjg4MjcgMjMuNTI0OCAyMy41MDMxIDIyLjg5NTQgMjMuMjM2OEMyMi4yNDg5IDIyLjk2MzMgMjEuNTY2OSAyMi44Mjg2IDIwLjg2MzEgMjIuODI4NkMyMC4xNTkyIDIyLjgyODYgMTkuNDc3MiAyMi45NjMzIDE4LjgzMDggMjMuMjM2OEMxOC4xOTY0IDIzLjUwNTIgMTcuNjMxMiAyMy44ODYyIDE3LjE0NCAyNC4zNzM0QzE2LjY2NjggMjQuODUwNiAxNi4yOTc2IDI1LjQwOTYgMTYuMDMzNCAyNi4wMzQyQzE1Ljc1OTkgMjYuNjgwNyAxNS42MjUyIDI3LjM2MjcgMTUuNjI1MiAyOC4wNjY1QzE1LjYyNTIgMjguODA4MSAxNS43NjEyIDI5LjUwNjMgMTYuMDM1OCAzMC4xNDRDMTYuMDA0IDMwLjE2OTEgMTUuOTcyNSAzMC4xOTQ1IDE1Ljk0MTIgMzAuMjIwMkMxNS42Mzg0IDMwLjQ1ODYgMTUuMzU4NiAzMC43MjA2IDE1LjEwMjUgMzEuMDA1MUMxNC41NTg1IDMwLjcyOTggMTQuMDcwMSAzMC4zNzQ4IDEzLjY0NzMgMjkuOTQwOEMxMi41MDc2IDI4Ljc3MTMgMTIgMjcuMTg5NiAxMiAyNS41MTYyQzEyIDIzLjcxNTUgMTIuNjYwMSAyMi4wMDggMTMuOTM4MSAyMC44MzE2QzE0Ljg4MjkgMTkuOTYyIDE2LjA5OTIgMTkuNDQ0MyAxNy40NzY4IDE5LjM2MjNaIiBjbGlwLXJ1bGU9ImV2ZW5vZGQiIGZpbGwtcnVsZT0iZXZlbm9kZCIvPiYjeGE7PHBhdGggZmlsbD0idXJsKCNwYWludDJfcmFkaWFsXzI2MjJfMjA0NzkpIiBkPSJNMjMuNDQ4NyAzMC44MDc3QzI0LjQyMDEgMzEuMTg5MyAyNS4yMDkzIDMxLjgxMzggMjUuODE2NCAzMi42ODExQzI2LjQyMzYgMzMuNTQ4NCAyNi43MjcxIDM0LjUyODQgMjYuNzI3MSAzNS42MjEyVjM3LjEwNDNDMjYuNzI3MSAzNy4zMTI0IDI2LjY0OSAzNy40ODU5IDI2LjQ5MjkgMzcuNjI0NkMyNi4zNTQyIDM3Ljc2MzQgMjYuMTg5NCAzNy44MzI4IDI1Ljk5ODYgMzcuODMyOEgyNC41MTU1QzI0LjMwNzQgMzcuODMyOCAyNC4xMjUyIDM3Ljc2MzQgMjMuOTY5MSAzNy42MjQ2QzIzLjgzMDQgMzcuNDg1OSAyMy43NjEgMzcuMzEyNCAyMy43NjEgMzcuMTA0M0MyMy43NjEgMzYuODk2MSAyMy44MzA0IDM2LjcyMjcgMjMuOTY5MSAzNi41ODM5QzI0LjEyNTIgMzYuNDI3OCAyNC4zMDc0IDM2LjM0OTcgMjQuNTE1NSAzNi4zNDk3SDI1LjI0NFYzNS42MjEyQzI1LjI0NCAzNS4xMTgyIDI1LjE0ODYgMzQuNjQxMSAyNC45NTc4IDM0LjE5MDJDMjQuNzY3IDMzLjczOTIgMjQuNDk4MiAzMy4zNDg5IDI0LjE1MTMgMzMuMDE5M0MyMy44MjE3IDMyLjY3MjQgMjMuNDMxNCAzMi40MDM1IDIyLjk4MDQgMzIuMjEyN0MyMi41NDY4IDMyLjAyMTkgMjIuMDY5OCAzMS45MjY1IDIxLjU0OTQgMzEuOTI2NUgyMC4wOTIzQzE5LjU3MiAzMS45MjY1IDE5LjA4NjMgMzIuMDIxOSAxOC42MzUzIDMyLjIxMjdDMTguMjAxNiAzMi40MDM1IDE3LjgxMTQgMzIuNjcyNCAxNy40NjQ0IDMzLjAxOTNDMTcuMTM0OSAzMy4zNDg5IDE2Ljg3NDcgMzMuNzM5MiAxNi42ODM5IDM0LjE5MDJDMTYuNDkzMSAzNC42NDExIDE2LjM5NzcgMzUuMTE4MiAxNi4zOTc3IDM1LjYyMTJWMzYuMzQ5N0gxNy4xMjYyQzE3LjMzNDMgMzYuMzQ5NyAxNy41MDc4IDM2LjQyNzggMTcuNjQ2NiAzNi41ODM5QzE3Ljc4NTMgMzYuNzIyNyAxNy44NTQ3IDM2Ljg5NjEgMTcuODU0NyAzNy4xMDQzQzE3Ljg1NDcgMzcuMzEyNCAxNy43ODUzIDM3LjQ4NTkgMTcuNjQ2NiAzNy42MjQ2QzE3LjUwNzggMzcuNzYzNCAxNy4zMzQzIDM3LjgzMjggMTcuMTI2MiAzNy44MzI4SDE1LjY0MzFDMTUuNDUyMyAzNy44MzI4IDE1LjI3ODkgMzcuNzYzNCAxNS4xMjI4IDM3LjYyNDZDMTQuOTg0IDM3LjQ4NTkgMTQuOTE0NiAzNy4zMTI0IDE0LjkxNDYgMzcuMTA0M1YzNS42MjEyQzE0LjkxNDYgMzUuMDY2MSAxNC45OTI3IDM0LjU0NTcgMTUuMTQ4OCAzNC4wNjAxQzE1LjMyMjIgMzMuNTU3IDE1LjU0NzcgMzMuMDk3NCAxNS44MjUzIDMyLjY4MTFDMTYuMTIwMSAzMi4yNjQ4IDE2LjQ2NzEgMzEuOTAwNSAxNi44NjYgMzEuNTg4M0MxNy4yNjUgMzEuMjU4NyAxNy43MDczIDMwLjk5ODUgMTguMTkzIDMwLjgwNzdDMTcuNDgxOCAzMC4xMzEyIDE3LjEyNjIgMjkuMjcyNiAxNy4xMjYyIDI4LjIzMThDMTcuMTI2MiAyNy43Mjg4IDE3LjIyMTYgMjcuMjUxOCAxNy40MTI0IDI2LjgwMDhDMTcuNjAzMiAyNi4zNDk4IDE3Ljg2MzQgMjUuOTU5NSAxOC4xOTMgMjUuNjNDMTguNTM5OSAyNS4yODMxIDE4LjkzODggMjUuMDE0MiAxOS4zODk4IDI0LjgyMzRDMTkuODQwOCAyNC42MzI2IDIwLjMxNzggMjQuNTM3MiAyMC44MjA5IDI0LjUzNzJDMjEuMzIzOSAyNC41MzcyIDIxLjgwMDkgMjQuNjMyNiAyMi4yNTE5IDI0LjgyMzRDMjIuNzAyOSAyNS4wMTQyIDIzLjA5MzIgMjUuMjgzMSAyMy40MjI3IDI1LjYzQzIzLjc2OTYgMjUuOTU5NSAyNC4wMzg1IDI2LjM0OTggMjQuMjI5MyAyNi44MDA4QzI0LjQyMDEgMjcuMjUxOCAyNC41MTU1IDI3LjcyODggMjQuNTE1NSAyOC4yMzE4QzI0LjUxNTUgMjguNzM0OSAyNC40MjAxIDI5LjIxMTkgMjQuMjI5MyAyOS42NjI5QzI0LjAzODUgMzAuMDk2NSAyMy43NzgzIDMwLjQ3ODEgMjMuNDQ4NyAzMC44MDc3Wk0yMC44MjA5IDI2LjAyMDNDMjAuMjEzOCAyNi4wMjAzIDE5LjY5MzQgMjYuMjM3MSAxOS4yNTk3IDI2LjY3MDdDMTguODI2MSAyNy4xMDQ0IDE4LjYwOTMgMjcuNjI0NyAxOC42MDkzIDI4LjIzMThDMTguNjA5MyAyOC44MzkgMTguODI2MSAyOS4zNTkzIDE5LjI1OTcgMjkuNzkzQzE5LjY5MzQgMzAuMjI2NiAyMC4yMTM4IDMwLjQ0MzQgMjAuODIwOSAzMC40NDM0QzIxLjQyOCAzMC40NDM0IDIxLjk0ODMgMzAuMjI2NiAyMi4zODIgMjkuNzkzQzIyLjgxNTYgMjkuMzU5MyAyMy4wMzI0IDI4LjgzOSAyMy4wMzI0IDI4LjIzMThDMjMuMDMyNCAyNy42MjQ3IDIyLjgxNTYgMjcuMTA0NCAyMi4zODIgMjYuNjcwN0MyMS45NDgzIDI2LjIzNzEgMjEuNDI4IDI2LjAyMDMgMjAuODIwOSAyNi4wMjAzWiIvPiYjeGE7PGRlZnM+JiN4YTs8bGluZWFyR3JhZGllbnQgZ3JhZGllbnRVbml0cz0idXNlclNwYWNlT25Vc2UiIHkyPSI0NC4yNzkyIiB4Mj0iNDEuNTY0NSIgeTE9IjYuODQ3NzUiIHgxPSI0Ljg1Mjg3IiBpZD0icGFpbnQwX2xpbmVhcl8yNjIyXzIwNDc5Ij4mI3hhOzxzdG9wIHN0b3AtY29sb3I9IndoaXRlIi8+JiN4YTs8c3RvcCBzdG9wLWNvbG9yPSIjRUFFQ0VFIiBvZmZzZXQ9IjEiLz4mI3hhOzwvbGluZWFyR3JhZGllbnQ+JiN4YTs8cmFkaWFsR3JhZGllbnQgZ3JhZGllbnRUcmFuc2Zvcm09InRyYW5zbGF0ZSgxNi4xNzM5IDE1Ljk5NTIpIHJvdGF0ZSg0My44NzgpIHNjYWxlKDI1Ljg1MjQgNDguODExNykiIGdyYWRpZW50VW5pdHM9InVzZXJTcGFjZU9uVXNlIiByPSIxIiBjeT0iMCIgY3g9IjAiIGlkPSJwYWludDFfcmFkaWFsXzI2MjJfMjA0NzkiPiYjeGE7PHN0b3Agc3RvcC1jb2xvcj0iIzAxOTVGRiIvPiYjeGE7PHN0b3Agc3RvcC1jb2xvcj0iIzExNDdFOSIgb2Zmc2V0PSIxIi8+JiN4YTs8L3JhZGlhbEdyYWRpZW50PiYjeGE7PHJhZGlhbEdyYWRpZW50IGdyYWRpZW50VHJhbnNmb3JtPSJ0cmFuc2xhdGUoMTYuMTY3OCAxNi4wODc1KSByb3RhdGUoNDMuNTYwMikgc2NhbGUoMjUuODcyNyAyMy41NDcxKSIgZ3JhZGllbnRVbml0cz0idXNlclNwYWNlT25Vc2UiIHI9IjEiIGN5PSIwIiBjeD0iMCIgaWQ9InBhaW50Ml9yYWRpYWxfMjYyMl8yMDQ3OSI+JiN4YTs8c3RvcCBzdG9wLWNvbG9yPSIjMTM0OEZGIi8+JiN4YTs8c3RvcCBzdG9wLWNvbG9yPSIjMDYyMzhEIiBvZmZzZXQ9IjEiLz4mI3hhOzwvcmFkaWFsR3JhZGllbnQ+JiN4YTs8L2RlZnM+JiN4YTs8L3N2Zz4=;points=[[0,0,0,0,0],[0,0.25,0,0,0],[0,0.5,0,0,0],[0,0.75,0,0,0],[0.25,0,0,0,0],[0.5,0,0,0,0],[0.75,0,0,0,0],[1,0,0,0,0],[1,0.25,0,0,0],[1,0.5,0,0,0],[1,0.75,0,0,0]];" parent="qwzbI1k6aY971nKIEggI-30" vertex="1">
          <mxGeometry x="30" width="49" height="49" as="geometry" />
        </mxCell>
        <mxCell id="qwzbI1k6aY971nKIEggI-32" value="&lt;font color=&quot;#1d2d3e&quot; size=&quot;1&quot; face=&quot;arial&quot; style=&quot;&quot;&gt;&lt;b style=&quot;font-size: 14px;&quot;&gt;Identity Provisoning&lt;br&gt;&lt;/b&gt;&lt;/font&gt;" style="text;html=1;align=center;verticalAlign=top;resizable=1;points=[[0,0.5,0,0,0],[0.21,1,0,0,0],[0.5,1,0,0,0],[0.85,1,0,0,0],[1,0.5,0,0,0]];autosize=0;strokeColor=none;fillColor=none;fontSize=12;fontColor=default;fontFamily=Helvetica;fixedWidth=1;imageWidth=24;whiteSpace=wrap;labelBackgroundColor=none;" parent="qwzbI1k6aY971nKIEggI-30" vertex="1">
          <mxGeometry y="49" width="110" height="46" as="geometry" />
        </mxCell>
        <mxCell id="qwzbI1k6aY971nKIEggI-33" value="" style="edgeStyle=orthogonalEdgeStyle;rounded=0;orthogonalLoop=1;jettySize=auto;html=1;endArrow=none;endFill=0;strokeColor=#7800A4;endSize=4;startSize=4;strokeWidth=1.5;entryX=0;entryY=0.25;entryDx=0;entryDy=0;exitX=0.75;exitY=0;exitDx=0;exitDy=0;exitPerimeter=0;entryPerimeter=0;startArrow=blockThin;startFill=1;" parent="9CCtWQhPG5mtvw0bM8_H-1" source="qwzbI1k6aY971nKIEggI-28" target="qwzbI1k6aY971nKIEggI-31" edge="1">
          <mxGeometry relative="1" as="geometry">
            <mxPoint x="438.22" y="360" as="targetPoint" />
            <mxPoint x="320.22" y="241" as="sourcePoint" />
            <Array as="points" />
          </mxGeometry>
        </mxCell>
        <mxCell id="qwzbI1k6aY971nKIEggI-35" value="" style="group" parent="9CCtWQhPG5mtvw0bM8_H-1" vertex="1" connectable="0">
          <mxGeometry x="526.22" y="350" width="110" height="95" as="geometry" />
        </mxCell>
        <mxCell id="qwzbI1k6aY971nKIEggI-36" value="" style="shape=image;verticalLabelPosition=bottom;verticalAlign=top;imageAspect=0;aspect=fixed;image=data:image/svg+xml,PHN2ZyB4bWxucz0iaHR0cDovL3d3dy53My5vcmcvMjAwMC9zdmciIGZpbGw9Im5vbmUiIHZpZXdCb3g9IjAgMCA0OSA0OSIgaGVpZ2h0PSI0OSIgd2lkdGg9IjQ5Ij4mI3hhOzxnIGNsaXAtcGF0aD0idXJsKCNjbGlwMF8yNjIyXzM5NjcpIj4mI3hhOzxjaXJjbGUgc3Ryb2tlLXdpZHRoPSIwLjg1NzE0MyIgc3Ryb2tlPSIjRDVEQUREIiBmaWxsPSJ1cmwoI3BhaW50MF9saW5lYXJfMjYyMl8zOTY3KSIgcj0iMjMuNTcxNCIgY3k9IjI0LjAzNDkiIGN4PSIyNC41Ii8+JiN4YTs8ZyBjbGlwLXBhdGg9InVybCgjY2xpcDFfMjYyMl8zOTY3KSI+JiN4YTs8cGF0aCBmaWxsPSJ1cmwoI3BhaW50MV9yYWRpYWxfMjYyMl8zOTY3KSIgZD0iTTIyLjI0MjkgMzcuNDA4NUMyMS45MTMzIDM3LjMwNDcgMjEuNjAwMyAzNy4xMzQyIDIxLjMwNCAzNi44OTcyQzIwLjgxMTggMzYuNTEwNCAyMC41MTMgMzYuMDAwNyAyMC40MDc1IDM1LjM2NzlMMjAuMDM4NCAzMy42Mjc2TDE3Ljc3MDggMzIuMjU2NUwxNi4xODg4IDMyLjk0MjFDMTUuODM3MiAzMy4wNDc1IDE1LjUwMzIgMzMuMTAwMyAxNS4xODY4IDMzLjEwMDNDMTQuNjk0NiAzMy4xMDAzIDE0LjIyIDMyLjk3NzIgMTMuNzYzIDMyLjczMTFDMTMuMzQxMSAzMi40ODUgMTMuMDA3MSAzMi4xMTU5IDEyLjc2MSAzMS42MjM3TDExLjc1OTEgMjkuNjcyNUMxMS41ODMzIDI5LjI1MDcgMTEuNDk1NCAyOC44NjQgMTEuNDk1NCAyOC41MTI0QzExLjQ5NTQgMjcuNTk4MyAxMS44NjQ2IDI2Ljg2IDEyLjYwMjggMjYuMjk3NUwxMy44MTU3IDI1LjQwMTFWMjIuNjU4OUwxMi41NTAxIDIxLjcwOTdDMTEuODQ3IDIxLjE4MjMgMTEuNDk1NCAyMC40NjE2IDExLjQ5NTQgMTkuNTQ3NUMxMS40OTU0IDE5LjE5NiAxMS41ODMzIDE4LjgwOTMgMTEuNzU5MSAxOC4zODc0TDEyLjc2MSAxNi40MzYyQzEzLjAwNzEgMTUuOTQ0IDEzLjM0MTEgMTUuNTc0OSAxMy43NjMgMTUuMzI4OEMxNC4yMiAxNS4wODI3IDE0LjY5NDYgMTQuOTU5NyAxNS4xODY4IDE0Ljk1OTdDMTUuNTczNSAxNC45NTk3IDE1LjkwNzUgMTUuMDMgMTYuMTg4OCAxNS4xNzA2TDE3Ljc3MDggMTUuODAzNEwyMC4wMzg0IDE0LjQzMjNMMjAuNDA3NSAxMi42OTIxQzIwLjU0ODEgMTIuMDU5MyAyMC44NjQ1IDExLjU0OTUgMjEuMzU2NyAxMS4xNjI4QzIxLjg0ODkgMTAuNzQwOSAyMi40MTE0IDEwLjUzIDIzLjA0NDIgMTAuNTNIMjQuODg5OUMyNS41MjI3IDEwLjUzIDI2LjA4NTIgMTAuNzQwOSAyNi41Nzc0IDExLjE2MjhDMjcuMDY5NiAxMS41NDk1IDI3LjM4NiAxMi4wNTkzIDI3LjUyNjYgMTIuNjkyMUwyNy44NDMgMTQuNDMyM0wzMC4xNjM0IDE1LjgwMzRMMzEuNzQ1NCAxNS4xNzA2QzMyLjAyNjYgMTUuMDMgMzIuMzYwNiAxNC45NTk3IDMyLjc0NzMgMTQuOTU5N0MzMy4yMzk1IDE0Ljk1OTcgMzMuNjk2NiAxNS4wODI3IDM0LjExODQgMTUuMzI4OEMzNC41NzU1IDE1LjU3NDkgMzQuOTI3IDE1Ljk0NCAzNS4xNzMxIDE2LjQzNjJMMzYuMTIyMyAxOC4zODc0QzM2LjMzMzMgMTguNzM5IDM2LjQzODcgMTkuMTQzMiAzNi40Mzg3IDE5LjYwMDNDMzYuNDM4NyAyMC40NzkyIDM2LjA2OTYgMjEuMTgyMyAzNS4zMzEzIDIxLjcwOTdMMzQuNjMyMyAyMi4yMzM5SDI5LjA1NzJDMjkuMDI0MiAyMi4xNDYxIDI4Ljk4ODYgMjIuMDU5MiAyOC45NTA1IDIxLjk3MzNDMjguNjY5MiAyMS4zMDU0IDI4LjI4MjUgMjAuNzI1MyAyNy43OTAzIDIwLjIzMzFDMjcuMjk4MSAxOS43NDA5IDI2LjcxODEgMTkuMzU0MiAyNi4wNTAxIDE5LjA3MjlDMjUuMzgyMSAxOC43OTE3IDI0LjY3OSAxOC42NTExIDIzLjk0MDcgMTguNjUxMUMyMy4yMDI0IDE4LjY1MTEgMjIuNDk5MyAxOC43OTE3IDIxLjgzMTMgMTkuMDcyOUMyMS4xOTg1IDE5LjM1NDIgMjAuNjM2IDE5Ljc0MDkgMjAuMTQzOCAyMC4yMzMxQzE5LjY1MTcgMjAuNzI1MyAxOS4yNjQ5IDIxLjMwNTQgMTguOTgzNyAyMS45NzMzQzE4LjcwMjQgMjIuNjA2MSAxOC41NjE4IDIzLjI5MTcgMTguNTYxOCAyNC4wM0MxOC41NjE4IDI0Ljc2ODIgMTguNzAyNCAyNS40NzE0IDE4Ljk4MzcgMjYuMTM5M0MxOS4yNjQ5IDI2Ljc3MjIgMTkuNjUxNyAyNy4zMzQ3IDIwLjE0MzggMjcuODI2OEMyMC42MzYgMjguMzE5IDIxLjE5ODUgMjguNzA1NyAyMS44MzEzIDI4Ljk4N0MyMS45NjcxIDI5LjA0NDIgMjIuMTA0MyAyOS4wOTU1IDIyLjI0MjkgMjkuMTQxTDIyLjI0MjkgMzcuNDA4NVoiIGNsaXAtcnVsZT0iZXZlbm9kZCIgZmlsbC1ydWxlPSJldmVub2RkIi8+JiN4YTs8cGF0aCBmaWxsPSJ1cmwoI3BhaW50Ml9yYWRpYWxfMjYyMl8zOTY3KSIgZD0iTTI2LjYzMDQgMjQuOTMzOEMyNS42OTg1IDI0LjkzMzggMjQuOTQyOSAyNS42ODk0IDI0Ljk0MjkgMjYuNjIxM1YzNS44MDcyQzI0Ljk0MjkgMzYuNzM5MiAyNS42OTg1IDM3LjQ5NDcgMjYuNjMwNCAzNy40OTQ3SDM2Ljc4MjVDMzcuNzE0NSAzNy40OTQ3IDM4LjQ3IDM2LjczOTIgMzguNDcgMzUuODA3MlYyNi42MjEzQzM4LjQ3IDI1LjY4OTQgMzcuNzE0NSAyNC45MzM4IDM2Ljc4MjUgMjQuOTMzOEgyNi42MzA0Wk0zMS43MDc2IDI3LjQ3MTRDMzEuNzA3NiAyNy44OTg2IDMxLjM2MTMgMjguMjQ1IDMwLjkzNDEgMjguMjQ1QzMwLjUwNjggMjguMjQ1IDMwLjE2MDUgMjcuODk4NiAzMC4xNjA1IDI3LjQ3MTRDMzAuMTYwNSAyNy4wNDQyIDMwLjUwNjggMjYuNjk3OSAzMC45MzQxIDI2LjY5NzlDMzEuMzYxMyAyNi42OTc5IDMxLjcwNzYgMjcuMDQ0MiAzMS43MDc2IDI3LjQ3MTRaTTM0LjAyNjYgMjcuNDcxNEMzNC4wMjY2IDI3Ljg5ODYgMzMuNjgwMiAyOC4yNDUgMzMuMjUzIDI4LjI0NUMzMi44MjU4IDI4LjI0NSAzMi40Nzk1IDI3Ljg5ODYgMzIuNDc5NSAyNy40NzE0QzMyLjQ3OTUgMjcuMDQ0MiAzMi44MjU4IDI2LjY5NzkgMzMuMjUzIDI2LjY5NzlDMzMuNjgwMiAyNi42OTc5IDM0LjAyNjYgMjcuMDQ0MiAzNC4wMjY2IDI3LjQ3MTRaTTM1LjU3MTkgMjguMjQ1QzM1Ljk5OTEgMjguMjQ1IDM2LjM0NTUgMjcuODk4NiAzNi4zNDU1IDI3LjQ3MTRDMzYuMzQ1NSAyNy4wNDQyIDM1Ljk5OTEgMjYuNjk3OSAzNS41NzE5IDI2LjY5NzlDMzUuMTQ0NyAyNi42OTc5IDM0Ljc5ODQgMjcuMDQ0MiAzNC43OTg0IDI3LjQ3MTRDMzQuNzk4NCAyNy44OTg2IDM1LjE0NDcgMjguMjQ1IDM1LjU3MTkgMjguMjQ1Wk0yNi44NzU0IDMxLjEwOTNDMjYuODc1NCAzMC44OTU5IDI3LjA0ODQgMzAuNzIyOCAyNy4yNjE5IDMwLjcyMjhIMzYuMTUxMUMzNi4zNjQ2IDMwLjcyMjggMzYuNTM3NiAzMC44OTU5IDM2LjUzNzYgMzEuMTA5M1YzNC45Nzc3QzM2LjUzNzYgMzUuMTkxMSAzNi4zNjQ2IDM1LjM2NDEgMzYuMTUxMSAzNS4zNjQxSDI3LjI2MTlDMjcuMDQ4NCAzNS4zNjQxIDI2Ljg3NTQgMzUuMTkxMSAyNi44NzU0IDM0Ljk3NzdWMzEuMTA5M1oiIGNsaXAtcnVsZT0iZXZlbm9kZCIgZmlsbC1ydWxlPSJldmVub2RkIi8+JiN4YTs8L2c+JiN4YTs8L2c+JiN4YTs8ZGVmcz4mI3hhOzxsaW5lYXJHcmFkaWVudCBncmFkaWVudFVuaXRzPSJ1c2VyU3BhY2VPblVzZSIgeTI9IjQ0LjI3OTIiIHgyPSI0MS41NjQ1IiB5MT0iNi44NDc3NSIgeDE9IjQuODUyODciIGlkPSJwYWludDBfbGluZWFyXzI2MjJfMzk2NyI+JiN4YTs8c3RvcCBzdG9wLWNvbG9yPSJ3aGl0ZSIvPiYjeGE7PHN0b3Agc3RvcC1jb2xvcj0iI0VBRUNFRSIgb2Zmc2V0PSIxIi8+JiN4YTs8L2xpbmVhckdyYWRpZW50PiYjeGE7PHJhZGlhbEdyYWRpZW50IGdyYWRpZW50VHJhbnNmb3JtPSJ0cmFuc2xhdGUoMTUuMzYzNSAxNC40NzY1KSByb3RhdGUoNDcuNDU1Nykgc2NhbGUoMjUuNTQwNCA0OC4wODI0KSIgZ3JhZGllbnRVbml0cz0idXNlclNwYWNlT25Vc2UiIHI9IjEiIGN5PSIwIiBjeD0iMCIgaWQ9InBhaW50MV9yYWRpYWxfMjYyMl8zOTY3Ij4mI3hhOzxzdG9wIHN0b3AtY29sb3I9IiMwMTk1RkYiLz4mI3hhOzxzdG9wIHN0b3AtY29sb3I9IiMxMTQ3RTkiIG9mZnNldD0iMSIvPiYjeGE7PC9yYWRpYWxHcmFkaWVudD4mI3hhOzxyYWRpYWxHcmFkaWVudCBncmFkaWVudFRyYW5zZm9ybT0idHJhbnNsYXRlKDI3LjA5NTcgMjYuODE5KSByb3RhdGUoNDIuODc4OSkgc2NhbGUoMTIuOTI3NCAxNS42NDYyKSIgZ3JhZGllbnRVbml0cz0idXNlclNwYWNlT25Vc2UiIHI9IjEiIGN5PSIwIiBjeD0iMCIgaWQ9InBhaW50Ml9yYWRpYWxfMjYyMl8zOTY3Ij4mI3hhOzxzdG9wIHN0b3AtY29sb3I9IiMwMEJCRkYiLz4mI3hhOzxzdG9wIHN0b3AtY29sb3I9IiMwMDhCRkYiIG9mZnNldD0iMSIvPiYjeGE7PC9yYWRpYWxHcmFkaWVudD4mI3hhOzxjbGlwUGF0aCBpZD0iY2xpcDBfMjYyMl8zOTY3Ij4mI3hhOzxyZWN0IHRyYW5zZm9ybT0idHJhbnNsYXRlKDAuNSAwLjAzNDkxMjEpIiBmaWxsPSJ3aGl0ZSIgaGVpZ2h0PSI0OCIgd2lkdGg9IjQ4Ii8+JiN4YTs8L2NsaXBQYXRoPiYjeGE7PGNsaXBQYXRoIGlkPSJjbGlwMV8yNjIyXzM5NjciPiYjeGE7PHJlY3QgdHJhbnNmb3JtPSJ0cmFuc2xhdGUoMTEuNSAxMC41MzQ5KSIgZmlsbD0id2hpdGUiIGhlaWdodD0iMjciIHdpZHRoPSIyNyIvPiYjeGE7PC9jbGlwUGF0aD4mI3hhOzwvZGVmcz4mI3hhOzwvc3ZnPg==;points=[[0,0,0,0,0],[0,0.25,0,0,0],[0,0.5,0,0,0],[0,0.75,0,0,0],[0,1,0,-45,66],[0.25,0,0,0,0],[0.5,0,0,0,0],[0.75,0,0,0,0],[1,0,0,0,0],[1,0.25,0,0,0],[1,0.5,0,0,0],[1,0.75,0,0,0],[1,1,0,167,59],[1,1,0,185,119],[1,1,0,227,108],[1,1,0,253,92]];" parent="qwzbI1k6aY971nKIEggI-35" vertex="1">
          <mxGeometry x="30.5" width="49" height="49" as="geometry" />
        </mxCell>
        <mxCell id="qwzbI1k6aY971nKIEggI-37" value="&lt;font color=&quot;#1d2d3e&quot; size=&quot;1&quot; face=&quot;arial&quot; style=&quot;&quot;&gt;&lt;b style=&quot;font-size: 14px;&quot;&gt;Authorization&lt;br&gt;Management&lt;br&gt;&lt;/b&gt;&lt;/font&gt;" style="text;html=1;align=center;verticalAlign=top;resizable=1;points=[[0,0.5,0,0,0],[0.21,1,0,0,0],[0.5,1,0,0,0],[0.85,1,0,0,0],[1,0.5,0,0,0]];autosize=0;strokeColor=none;fillColor=none;fontSize=12;fontColor=default;fontFamily=Helvetica;fixedWidth=1;imageWidth=24;whiteSpace=wrap;labelBackgroundColor=none;" parent="qwzbI1k6aY971nKIEggI-35" vertex="1">
          <mxGeometry y="49" width="110" height="46" as="geometry" />
        </mxCell>
        <mxCell id="qwzbI1k6aY971nKIEggI-38" value="" style="edgeStyle=orthogonalEdgeStyle;rounded=0;orthogonalLoop=1;jettySize=auto;html=1;endArrow=blockThin;endFill=1;strokeColor=#7800A4;endSize=4;startSize=4;strokeWidth=1.5;exitX=1;exitY=0.5;exitDx=0;exitDy=0;exitPerimeter=0;entryX=0;entryY=0.5;entryDx=0;entryDy=0;entryPerimeter=0;startArrow=blockThin;startFill=1;" parent="9CCtWQhPG5mtvw0bM8_H-1" source="qwzbI1k6aY971nKIEggI-28" target="qwzbI1k6aY971nKIEggI-36" edge="1">
          <mxGeometry relative="1" as="geometry">
            <mxPoint x="526.22" y="350" as="targetPoint" />
            <mxPoint x="451.22" y="360" as="sourcePoint" />
            <Array as="points" />
          </mxGeometry>
        </mxCell>
        <mxCell id="qwzbI1k6aY971nKIEggI-41" value="" style="edgeStyle=orthogonalEdgeStyle;rounded=0;orthogonalLoop=1;jettySize=auto;html=1;endArrow=blockThin;endFill=1;strokeColor=#7800A4;endSize=4;startSize=4;strokeWidth=1.5;exitX=1;exitY=0.5;exitDx=0;exitDy=0;exitPerimeter=0;entryX=1;entryY=0.25;entryDx=0;entryDy=0;startArrow=blockThin;startFill=1;" parent="9CCtWQhPG5mtvw0bM8_H-1" source="qwzbI1k6aY971nKIEggI-36" target="qwzbI1k6aY971nKIEggI-64" edge="1">
          <mxGeometry relative="1" as="geometry">
            <mxPoint x="876.22" y="530" as="targetPoint" />
            <mxPoint x="615.22" y="265" as="sourcePoint" />
            <Array as="points">
              <mxPoint x="740" y="375" />
              <mxPoint x="740" y="510" />
            </Array>
          </mxGeometry>
        </mxCell>
        <mxCell id="qwzbI1k6aY971nKIEggI-42" value="" style="rounded=1;whiteSpace=wrap;html=1;strokeColor=#0070F2;strokeWidth=1.5;arcSize=16;fillColor=#FFFFFF;perimeterSpacing=0;absoluteArcSize=1;" parent="9CCtWQhPG5mtvw0bM8_H-1" vertex="1">
          <mxGeometry x="835.22" y="192.88" width="189" height="80" as="geometry" />
        </mxCell>
        <mxCell id="qwzbI1k6aY971nKIEggI-43" value="" style="shape=image;verticalLabelPosition=bottom;labelBackgroundColor=default;verticalAlign=top;aspect=fixed;imageAspect=0;image=data:image/svg+xml,PHN2ZyB4bWxucz0iaHR0cDovL3d3dy53My5vcmcvMjAwMC9zdmciIGZpbGw9Im5vbmUiIHZpZXdCb3g9IjAgMCAxNyAxMiIgaGVpZ2h0PSIxMiIgd2lkdGg9IjE3Ij4mI3hhOzxwYXRoIGZpbGw9InVybCgjcGFpbnQwX2xpbmVhcl83MjRfMTQpIiBkPSJNMTIuMzQ2MSAxMS45OTc0SDMuODE0ODVDMy4zNTY1MiAxMS45OTc0IDIuOTE5MDIgMTEuOTAzNiAyLjUwMjM1IDExLjcxNjJDMi4wODU2OCAxMS41MDc4IDEuNzIxMSAxMS4yMzcgMS40MDg2IDEwLjkwMzZDMS4wOTYxIDEwLjU0OTUgMC44NDYxIDEwLjE0MzIgMC42NTg2IDkuNjg0OTFDMC40OTE5MyA5LjIyNjYxIDAuNDA4NiA4LjczNzAxIDAuNDA4NiA4LjIxNjIxQzAuNDA4NiA3LjcxNjE2IDAuNDkxOTMgNy4yMzY5OSAwLjY1ODYgNi43Nzg2NkMwLjg0NjEgNi4zMjAzMyAxLjA4NTY4IDUuOTI0NDkgMS4zNzczNSA1LjU5MTE2QzEuNjY5MDIgNS4yMzY5OSAyLjAxMjc3IDQuOTY2MTYgMi40MDg2IDQuNzc4NjZDMi44MjUyNyA0LjU3MDMzIDMuMjYyNzcgNC40NjYxNiAzLjcyMTEgNC40NjYxNkMzLjgyNTI3IDMuODQxMTYgNC4wMTI3NyAzLjI1NzgzIDQuMjgzNiAyLjcxNjE2QzQuNTU0NDMgMi4xNTM2NiA0Ljg5ODE4IDEuNjc0NDkgNS4zMTQ4NSAxLjI3ODY2QzUuNzMxNTIgMC44ODI4MzQgNi4yMDAyNyAwLjU3MDMzNCA2LjcyMTEgMC4zNDExNjRDNy4yNjI3NyAwLjExMTk5NCA3LjgyNTI3IC0wLjAwMjU4NjM2IDguNDA4NiAtMC4wMDI1ODYzNkM5LjMwNDQzIC0wLjAwMjU4NjM2IDEwLjEzNzcgMC4yNjgyNDQgMTAuOTA4NiAwLjgwOTkxNEMxMS42Nzk0IDEuMzUxNTggMTIuMjczMSAyLjA4MDc0IDEyLjY4OTggMi45OTc0MUMxMy4yMTA2IDMuMDM5MDggMTMuNzAwMiAzLjE4NDkxIDE0LjE1ODYgMy40MzQ5MUMxNC42MTY5IDMuNjg0OTEgMTUuMDEyOCA0LjAxODI0IDE1LjM0NjEgNC40MzQ5MUMxNS42Nzk1IDQuODMwNzQgMTUuOTM5OCA1LjI4OTA4IDE2LjEyNzMgNS44MDk5MUMxNi4zMTQ4IDYuMzMwNzQgMTYuNDA4NiA2Ljg5MzI0IDE2LjQwODYgNy40OTc0MUMxNi40MDg2IDguMTIyNDEgMTYuMzA0NSA4LjcxNjIxIDE2LjA5NjEgOS4yNzg2MUMxNS44ODc4IDkuODIwMzEgMTUuNTk2MSAxMC4yOTk1IDE1LjIyMTEgMTAuNzE2MkMxNC44NjcgMTEuMTEyIDE0LjQzOTggMTEuNDI0NSAxMy45Mzk4IDExLjY1MzZDMTMuNDM5OCAxMS44ODI4IDEyLjkwODcgMTEuOTk3NCAxMi4zNDYxIDExLjk5NzRaTTMuODE0ODUgNi4wNTk5MUMzLjMxNDg1IDYuMDU5OTEgMi44ODc3NyA2LjI2ODI0IDIuNTMzNiA2LjY4NDkxQzIuMTc5NDMgNy4xMDE1OCAyLjAwMjM1IDcuNjExOTkgMi4wMDIzNSA4LjIxNjIxQzIuMDAyMzUgOC44MjAzMSAyLjE3OTQzIDkuMzQxMjEgMi41MzM2IDkuNzc4NjFDMi44ODc3NyAxMC4xOTUzIDMuMzE0ODUgMTAuNDAzNiAzLjgxNDg1IDEwLjQwMzZIMTIuMzQ2MUMxMy4wMzM3IDEwLjQwMzYgMTMuNjE3IDEwLjEyMjQgMTQuMDk2MSA5LjU1OTkxQzE0LjU3NTMgOC45OTc0MSAxNC44MTQ4IDguMzA5OTEgMTQuODE0OCA3LjQ5NzQxQzE0LjgxNDggNi42NjQwOCAxNC41NzUzIDUuOTY2MTYgMTQuMDk2MSA1LjQwMzY2QzEzLjYxNyA0Ljg0MTE2IDEzLjAzMzcgNC41NTk5MSAxMi4zNDYxIDQuNTU5OTFIMTIuMTI3M0MxMS43NzMxIDQuNTU5OTEgMTEuNTIzMSA0LjM4MjgzIDExLjM3NzMgNC4wMjg2NkMxMS4xMjczIDMuMjk5NDkgMTAuNzMxNSAyLjcxNjE2IDEwLjE4OTggMi4yNzg2NkM5LjY0ODE1IDEuODIwMzMgOS4wNTQ0MyAxLjU5MTE2IDguNDA4NiAxLjU5MTE2QzcuOTcxMSAxLjU5MTE2IDcuNTY0ODUgMS42OTUzMyA3LjE4OTg1IDEuOTAzNjZDNi44MTQ4NSAyLjA5MTE2IDYuNDgxNTIgMi4zNTE1OCA2LjE4OTg1IDIuNjg0OTFDNS45MTkwMiAyLjk5NzQxIDUuNzAwMjcgMy4zODI4MyA1LjUzMzYgMy44NDExNkM1LjM2NjkzIDQuMjc4NjYgNS4yODM2IDQuNzQ3NDEgNS4yODM2IDUuMjQ3NDFDNS4yODM2IDUuNDc2NTggNS4yMDAyNyA1LjY3NDQ5IDUuMDMzNiA1Ljg0MTE2QzQuODg3NzcgNS45ODY5OSA0LjcwMDI3IDYuMDU5OTEgNC40NzExIDYuMDU5OTFIMy44MTQ4NVoiLz4mI3hhOzxkZWZzPiYjeGE7PGxpbmVhckdyYWRpZW50IGdyYWRpZW50VW5pdHM9InVzZXJTcGFjZU9uVXNlIiB5Mj0iMTAuMzM3MyIgeDI9IjE0LjI2MDIiIHkxPSIxLjEyNjIzIiB4MT0iMi40NzY0NiIgaWQ9InBhaW50MF9saW5lYXJfNzI0XzE0Ij4mI3hhOzxzdG9wIHN0b3AtY29sb3I9IiMyMzk1RkYiLz4mI3hhOzxzdG9wIHN0b3AtY29sb3I9IiMwMDU3RDIiIG9mZnNldD0iMSIvPiYjeGE7PC9saW5lYXJHcmFkaWVudD4mI3hhOzwvZGVmcz4mI3hhOzwvc3ZnPg==;strokeWidth=1.5;" parent="9CCtWQhPG5mtvw0bM8_H-1" vertex="1">
          <mxGeometry x="844.22" y="204.51999999999998" width="34.52" height="24.36" as="geometry" />
        </mxCell>
        <mxCell id="qwzbI1k6aY971nKIEggI-44" value="&lt;font face=&quot;arial&quot; style=&quot;font-size: 16px;&quot;&gt;&lt;b style=&quot;font-size: 16px;&quot;&gt;SAP Cloud&lt;br&gt;Solutions&lt;/b&gt;&lt;/font&gt;" style="text;html=1;align=left;verticalAlign=middle;resizable=0;points=[];autosize=1;strokeColor=none;fillColor=none;fontSize=12;fontColor=#1d2d3e;fontFamily=Helvetica;" parent="9CCtWQhPG5mtvw0bM8_H-1" vertex="1">
          <mxGeometry x="884.22" y="197.88" width="100" height="50" as="geometry" />
        </mxCell>
        <mxCell id="qwzbI1k6aY971nKIEggI-45" value="" style="group" parent="9CCtWQhPG5mtvw0bM8_H-1" vertex="1" connectable="0">
          <mxGeometry x="897.22" y="364.26" width="67" height="68.25" as="geometry" />
        </mxCell>
        <mxCell id="qwzbI1k6aY971nKIEggI-46" value="" style="shape=image;verticalLabelPosition=bottom;labelBackgroundColor=default;verticalAlign=top;aspect=fixed;imageAspect=0;image=data:image/svg+xml,PHN2ZyB4bWxucz0iaHR0cDovL3d3dy53My5vcmcvMjAwMC9zdmciIGZpbGw9Im5vbmUiIHZpZXdCb3g9IjAgMCAxNyAxNyIgaGVpZ2h0PSIxNyIgd2lkdGg9IjE3Ij4mI3hhOzxwYXRoIGZpbGw9InVybCgjcGFpbnQwX2xpbmVhcl83MjNfMTEpIiBkPSJNMTUuODQ0NyAxNC45OTYyQzE2LjAxMTQgMTUuMTYyOSAxNi4wOTQ3IDE1LjM0IDE2LjA5NDcgMTUuNTI3NEMxNi4wOTQ3IDE1LjczNTggMTYuMDExNCAxNS45MjMzIDE1Ljg0NDcgMTYuMDlDMTUuNjc4IDE2LjI1NjYgMTUuNDkwNSAxNi4zNCAxNS4yODIyIDE2LjM0QzE1LjA3MzkgMTYuMzQgMTQuODg2NCAxNi4yNTY2IDE0LjcxOTcgMTYuMDlMMTEuNzgyMiAxMy4xNTI0QzExLjEzNjQgMTMuNjczMyAxMC40MDcyIDEzLjkxMjkgOS41OTQ2NyAxMy44NzEyQzguNzgyMTcgMTMuODI5NSA4LjA3Mzg0IDEzLjUwNjYgNy40Njk2NyAxMi45MDI0TDMuNjI1OTIgOS4wODk5N0MzLjMzNDI1IDguNzc3NDcgMy4xMDUwOSA4LjQ0NDE0IDIuOTM4NDIgOC4wODk5N0MyLjc3MTc1IDcuNzE0OTcgMi42NzggNy4zMzk5NyAyLjY1NzE3IDYuOTY0OTdDMi42NTcxNyA2LjU2OTE0IDIuNzA5MjUgNi4xODM3MiAyLjgxMzQyIDUuODA4NzJDMi45Mzg0MiA1LjQzMzcyIDMuMTM2MzQgNS4wODk5NyAzLjQwNzE3IDQuNzc3NDdMMC4zNDQ2NjYgMS43NDYyMkMwLjE3Nzk5OSAxLjU3OTU1IDAuMDk0NjY1NSAxLjM5MjA1IDAuMDk0NjY1NSAxLjE4MzcyQzAuMDk0NjY1NSAwLjk3NTM5IDAuMTc3OTk5IDAuNzg3ODkgMC4zNDQ2NjYgMC42MjEyMjNDMC41MTEzMzMgMC40NTQ1NTcgMC42OTg4MzMgMC4zNzEyMjMgMC45MDcxNjYgMC4zNzEyMjNDMS4xMTU1IDAuMzcxMjIzIDEuMzAzIDAuNDU0NTU3IDEuNDY5NjcgMC42MjEyMjNMNC41MDA5MiAzLjY1MjQ3QzUuMTQ2NzUgMy4xMzE2NCA1Ljg3NTkyIDIuODkyMDUgNi42ODg0MiAyLjkzMzcyQzcuNTAwOTIgMi45NzUzOSA4LjIwOTI1IDMuMjk4MyA4LjgxMzQyIDMuOTAyNDdMMTIuNjU3MiA3LjcxNDk3QzEyLjk0ODkgOC4wMjc0NyAxMy4xNzggOC4zNzEyMiAxMy4zNDQ3IDguNzQ2MjJDMTMuNTExNCA5LjEwMDM5IDEzLjYwNTEgOS40NzUzOSAxMy42MjU5IDkuODcxMjJDMTMuNjQ2OCAxMC4yNDYyIDEzLjU5NDcgMTAuNjIxMiAxMy40Njk3IDEwLjk5NjJDMTMuMzQ0NyAxMS4zNzEyIDEzLjE1NzIgMTEuNzE1IDEyLjkwNzIgMTIuMDI3NEwxNS44NDQ3IDE0Ljk5NjJaTTQuNzUwOTIgNS42NTI0N0M0LjQzODQyIDUuOTY0OTcgNC4yODIxNyA2LjMzOTk3IDQuMjgyMTcgNi43Nzc0N0M0LjI4MjE3IDcuMTk0MTQgNC40Mzg0MiA3LjU1ODcyIDQuNzUwOTIgNy44NzEyMkw2LjA5NDY3IDkuMjQ2MjJMOC45Njk2NyA2LjM3MTIyTDcuNjI1OTIgNC45OTYyMkM3LjMxMzQyIDQuNjgzNzIgNi45Mzg0MiA0LjUyNzQ3IDYuNTAwOTIgNC41Mjc0N0M2LjA4NDI1IDQuNTI3NDcgNS43MDkyNSA0LjY4MzcyIDUuMzc1OTIgNC45OTYyMkw0Ljc1MDkyIDUuNjUyNDdaTTguNTk0NjcgMTEuNzE1QzguOTA3MTcgMTIuMDI3NCA5LjI3MTc1IDEyLjE4MzcgOS42ODg0MiAxMi4xODM3QzEwLjEyNTkgMTIuMTgzNyAxMC41MDA5IDEyLjAyNzQgMTAuODEzNSAxMS43MTVMMTEuNDY5NyAxMS4wOUMxMS43ODIyIDEwLjc1NjYgMTEuOTM4NSAxMC4zODE2IDExLjkzODUgOS45NjQ5N0MxMS45Mzg1IDkuNTI3NDcgMTEuNzgyMiA5LjE1MjQ3IDExLjQ2OTcgOC44Mzk5N0wxMC4wOTQ3IDcuNDk2MjJMNy4yMTk2NyAxMC4zNzEyTDguNTk0NjcgMTEuNzE1WiIvPiYjeGE7PGRlZnM+JiN4YTs8bGluZWFyR3JhZGllbnQgZ3JhZGllbnRVbml0cz0idXNlclNwYWNlT25Vc2UiIHkyPSIxMC4xNjM5IiB4Mj0iMTYuMjc2NCIgeTE9IjEuODczMzgiIHgxPSIyLjE2MjUyIiBpZD0icGFpbnQwX2xpbmVhcl83MjNfMTEiPiYjeGE7PHN0b3Agc3RvcC1jb2xvcj0iIzIzOTVGRiIvPiYjeGE7PHN0b3Agc3RvcC1jb2xvcj0iIzAwNTdEMiIgb2Zmc2V0PSIxIi8+JiN4YTs8L2xpbmVhckdyYWRpZW50PiYjeGE7PC9kZWZzPiYjeGE7PC9zdmc+;" parent="qwzbI1k6aY971nKIEggI-45" vertex="1">
          <mxGeometry x="17" width="31" height="31" as="geometry" />
        </mxCell>
        <mxCell id="qwzbI1k6aY971nKIEggI-47" value="&lt;span style=&quot;font-family: Helvetica; font-style: normal; font-variant-ligatures: normal; font-variant-caps: normal; font-weight: 700; letter-spacing: normal; orphans: 2; text-indent: 0px; text-transform: none; widows: 2; word-spacing: 0px; -webkit-text-stroke-width: 0px; text-decoration-thickness: initial; text-decoration-style: initial; text-decoration-color: initial; float: none; display: inline !important;&quot;&gt;&lt;font style=&quot;font-size: 11px;&quot; color=&quot;#354a5f&quot;&gt;Cloud &lt;br&gt;Connector&lt;/font&gt;&lt;/span&gt;" style="text;whiteSpace=wrap;html=1;align=center;" parent="qwzbI1k6aY971nKIEggI-45" vertex="1">
          <mxGeometry y="28.25" width="67" height="40" as="geometry" />
        </mxCell>
        <mxCell id="qwzbI1k6aY971nKIEggI-48" value="" style="edgeStyle=orthogonalEdgeStyle;rounded=0;orthogonalLoop=1;jettySize=auto;html=1;endArrow=none;endFill=0;strokeColor=#7800A4;endSize=4;startSize=4;strokeWidth=1.5;entryX=1;entryY=0.5;entryDx=0;entryDy=0;exitX=1;exitY=0.25;exitDx=0;exitDy=0;exitPerimeter=0;startArrow=blockThin;startFill=1;" parent="9CCtWQhPG5mtvw0bM8_H-1" source="qwzbI1k6aY971nKIEggI-31" target="qwzbI1k6aY971nKIEggI-64" edge="1">
          <mxGeometry relative="1" as="geometry">
            <mxPoint x="1014.22" y="243" as="targetPoint" />
            <mxPoint x="615.22" y="265" as="sourcePoint" />
            <Array as="points">
              <mxPoint x="780" y="242" />
              <mxPoint x="780" y="540" />
            </Array>
          </mxGeometry>
        </mxCell>
        <mxCell id="qwzbI1k6aY971nKIEggI-49" value="" style="edgeStyle=orthogonalEdgeStyle;rounded=0;orthogonalLoop=1;jettySize=auto;html=1;endArrow=none;endFill=0;strokeColor=#7800A4;endSize=4;startSize=4;strokeWidth=1.5;exitX=1;exitY=0.25;exitDx=0;exitDy=0;exitPerimeter=0;entryX=0;entryY=0.5;entryDx=0;entryDy=0;startArrow=blockThin;startFill=1;" parent="9CCtWQhPG5mtvw0bM8_H-1" source="qwzbI1k6aY971nKIEggI-31" target="qwzbI1k6aY971nKIEggI-46" edge="1">
          <mxGeometry relative="1" as="geometry">
            <mxPoint x="826.22" y="360" as="targetPoint" />
            <mxPoint x="615.22" y="277" as="sourcePoint" />
            <Array as="points">
              <mxPoint x="780" y="242" />
              <mxPoint x="780" y="380" />
              <mxPoint x="914" y="380" />
            </Array>
          </mxGeometry>
        </mxCell>
        <mxCell id="qwzbI1k6aY971nKIEggI-51" value="" style="edgeStyle=orthogonalEdgeStyle;rounded=0;orthogonalLoop=1;jettySize=auto;html=1;endArrow=none;endFill=0;strokeColor=#7800A4;endSize=4;startSize=4;strokeWidth=1.5;exitX=1;exitY=0.25;exitDx=0;exitDy=0;exitPerimeter=0;entryX=0.002;entryY=0.616;entryDx=0;entryDy=0;entryPerimeter=0;startArrow=blockThin;startFill=1;" parent="9CCtWQhPG5mtvw0bM8_H-1" source="qwzbI1k6aY971nKIEggI-31" target="qwzbI1k6aY971nKIEggI-42" edge="1">
          <mxGeometry relative="1" as="geometry">
            <mxPoint x="826.22" y="242" as="targetPoint" />
            <mxPoint x="451.22" y="360" as="sourcePoint" />
            <Array as="points" />
          </mxGeometry>
        </mxCell>
        <mxCell id="qwzbI1k6aY971nKIEggI-52" value="&lt;font size=&quot;1&quot; color=&quot;#f5f6f7&quot;&gt;&lt;b&gt;Groups&lt;/b&gt;&lt;/font&gt;" style="rounded=1;whiteSpace=wrap;html=1;arcSize=50;strokeColor=none;fillColor=#7800A4;" parent="9CCtWQhPG5mtvw0bM8_H-1" vertex="1">
          <mxGeometry x="686.22" y="233.75" width="70" height="16" as="geometry" />
        </mxCell>
        <mxCell id="qwzbI1k6aY971nKIEggI-53" value="&lt;font size=&quot;1&quot; color=&quot;#f5f6f7&quot;&gt;&lt;b&gt;Policies&lt;/b&gt;&lt;/font&gt;" style="rounded=1;whiteSpace=wrap;html=1;arcSize=50;strokeColor=none;fillColor=#7800A4;" parent="9CCtWQhPG5mtvw0bM8_H-1" vertex="1">
          <mxGeometry x="684.22" y="367.26" width="53.72" height="16" as="geometry" />
        </mxCell>
        <mxCell id="qwzbI1k6aY971nKIEggI-54" value="" style="edgeStyle=orthogonalEdgeStyle;rounded=0;orthogonalLoop=1;jettySize=auto;html=1;endArrow=blockThin;endFill=1;strokeColor=#475e74;endSize=4;startSize=4;strokeWidth=1.5;entryX=0.5;entryY=0;entryDx=0;entryDy=0;exitX=0.5;exitY=1;exitDx=0;exitDy=0;startArrow=blockThin;startFill=1;" parent="9CCtWQhPG5mtvw0bM8_H-1" target="qwzbI1k6aY971nKIEggI-55" edge="1">
          <mxGeometry relative="1" as="geometry">
            <mxPoint x="453.22" y="360" as="targetPoint" />
            <mxPoint x="455.4949999999999" y="460" as="sourcePoint" />
            <Array as="points" />
          </mxGeometry>
        </mxCell>
        <mxCell id="qwzbI1k6aY971nKIEggI-55" value="" style="rounded=1;whiteSpace=wrap;html=1;strokeColor=#0070F2;strokeWidth=1.5;arcSize=16;fillColor=#FFFFFF;perimeterSpacing=0;absoluteArcSize=1;" parent="9CCtWQhPG5mtvw0bM8_H-1" vertex="1">
          <mxGeometry x="371.22" y="480" width="170.00000000000003" height="120" as="geometry" />
        </mxCell>
        <mxCell id="qwzbI1k6aY971nKIEggI-56" value="&lt;span style=&quot;font-size: 15px; font-weight: 700;&quot;&gt;&lt;font color=&quot;#1d2d3e&quot;&gt;SAP Cloud Identity Access Governance&lt;/font&gt;&lt;/span&gt;" style="text;whiteSpace=wrap;html=1;align=center;" parent="9CCtWQhPG5mtvw0bM8_H-1" vertex="1">
          <mxGeometry x="381.06149659863945" y="543.144936086529" width="150.3979591836735" height="45.55555555555556" as="geometry" />
        </mxCell>
        <mxCell id="qwzbI1k6aY971nKIEggI-57" value="" style="shape=image;verticalLabelPosition=bottom;verticalAlign=top;imageAspect=0;aspect=fixed;image=data:image/svg+xml,PHN2ZyB4bWxucz0iaHR0cDovL3d3dy53My5vcmcvMjAwMC9zdmciIGZpbGw9Im5vbmUiIHZpZXdCb3g9IjAgMCA0OSA0OSIgaGVpZ2h0PSI0OSIgd2lkdGg9IjQ5Ij4mI3hhOzxnIGNsaXAtcGF0aD0idXJsKCNjbGlwMF8yNjIyXzM5NjcpIj4mI3hhOzxjaXJjbGUgc3Ryb2tlLXdpZHRoPSIwLjg1NzE0MyIgc3Ryb2tlPSIjRDVEQUREIiBmaWxsPSJ1cmwoI3BhaW50MF9saW5lYXJfMjYyMl8zOTY3KSIgcj0iMjMuNTcxNCIgY3k9IjI0LjAzNDkiIGN4PSIyNC41Ii8+JiN4YTs8ZyBjbGlwLXBhdGg9InVybCgjY2xpcDFfMjYyMl8zOTY3KSI+JiN4YTs8cGF0aCBmaWxsPSJ1cmwoI3BhaW50MV9yYWRpYWxfMjYyMl8zOTY3KSIgZD0iTTIyLjI0MjkgMzcuNDA4NUMyMS45MTMzIDM3LjMwNDcgMjEuNjAwMyAzNy4xMzQyIDIxLjMwNCAzNi44OTcyQzIwLjgxMTggMzYuNTEwNCAyMC41MTMgMzYuMDAwNyAyMC40MDc1IDM1LjM2NzlMMjAuMDM4NCAzMy42Mjc2TDE3Ljc3MDggMzIuMjU2NUwxNi4xODg4IDMyLjk0MjFDMTUuODM3MiAzMy4wNDc1IDE1LjUwMzIgMzMuMTAwMyAxNS4xODY4IDMzLjEwMDNDMTQuNjk0NiAzMy4xMDAzIDE0LjIyIDMyLjk3NzIgMTMuNzYzIDMyLjczMTFDMTMuMzQxMSAzMi40ODUgMTMuMDA3MSAzMi4xMTU5IDEyLjc2MSAzMS42MjM3TDExLjc1OTEgMjkuNjcyNUMxMS41ODMzIDI5LjI1MDcgMTEuNDk1NCAyOC44NjQgMTEuNDk1NCAyOC41MTI0QzExLjQ5NTQgMjcuNTk4MyAxMS44NjQ2IDI2Ljg2IDEyLjYwMjggMjYuMjk3NUwxMy44MTU3IDI1LjQwMTFWMjIuNjU4OUwxMi41NTAxIDIxLjcwOTdDMTEuODQ3IDIxLjE4MjMgMTEuNDk1NCAyMC40NjE2IDExLjQ5NTQgMTkuNTQ3NUMxMS40OTU0IDE5LjE5NiAxMS41ODMzIDE4LjgwOTMgMTEuNzU5MSAxOC4zODc0TDEyLjc2MSAxNi40MzYyQzEzLjAwNzEgMTUuOTQ0IDEzLjM0MTEgMTUuNTc0OSAxMy43NjMgMTUuMzI4OEMxNC4yMiAxNS4wODI3IDE0LjY5NDYgMTQuOTU5NyAxNS4xODY4IDE0Ljk1OTdDMTUuNTczNSAxNC45NTk3IDE1LjkwNzUgMTUuMDMgMTYuMTg4OCAxNS4xNzA2TDE3Ljc3MDggMTUuODAzNEwyMC4wMzg0IDE0LjQzMjNMMjAuNDA3NSAxMi42OTIxQzIwLjU0ODEgMTIuMDU5MyAyMC44NjQ1IDExLjU0OTUgMjEuMzU2NyAxMS4xNjI4QzIxLjg0ODkgMTAuNzQwOSAyMi40MTE0IDEwLjUzIDIzLjA0NDIgMTAuNTNIMjQuODg5OUMyNS41MjI3IDEwLjUzIDI2LjA4NTIgMTAuNzQwOSAyNi41Nzc0IDExLjE2MjhDMjcuMDY5NiAxMS41NDk1IDI3LjM4NiAxMi4wNTkzIDI3LjUyNjYgMTIuNjkyMUwyNy44NDMgMTQuNDMyM0wzMC4xNjM0IDE1LjgwMzRMMzEuNzQ1NCAxNS4xNzA2QzMyLjAyNjYgMTUuMDMgMzIuMzYwNiAxNC45NTk3IDMyLjc0NzMgMTQuOTU5N0MzMy4yMzk1IDE0Ljk1OTcgMzMuNjk2NiAxNS4wODI3IDM0LjExODQgMTUuMzI4OEMzNC41NzU1IDE1LjU3NDkgMzQuOTI3IDE1Ljk0NCAzNS4xNzMxIDE2LjQzNjJMMzYuMTIyMyAxOC4zODc0QzM2LjMzMzMgMTguNzM5IDM2LjQzODcgMTkuMTQzMiAzNi40Mzg3IDE5LjYwMDNDMzYuNDM4NyAyMC40NzkyIDM2LjA2OTYgMjEuMTgyMyAzNS4zMzEzIDIxLjcwOTdMMzQuNjMyMyAyMi4yMzM5SDI5LjA1NzJDMjkuMDI0MiAyMi4xNDYxIDI4Ljk4ODYgMjIuMDU5MiAyOC45NTA1IDIxLjk3MzNDMjguNjY5MiAyMS4zMDU0IDI4LjI4MjUgMjAuNzI1MyAyNy43OTAzIDIwLjIzMzFDMjcuMjk4MSAxOS43NDA5IDI2LjcxODEgMTkuMzU0MiAyNi4wNTAxIDE5LjA3MjlDMjUuMzgyMSAxOC43OTE3IDI0LjY3OSAxOC42NTExIDIzLjk0MDcgMTguNjUxMUMyMy4yMDI0IDE4LjY1MTEgMjIuNDk5MyAxOC43OTE3IDIxLjgzMTMgMTkuMDcyOUMyMS4xOTg1IDE5LjM1NDIgMjAuNjM2IDE5Ljc0MDkgMjAuMTQzOCAyMC4yMzMxQzE5LjY1MTcgMjAuNzI1MyAxOS4yNjQ5IDIxLjMwNTQgMTguOTgzNyAyMS45NzMzQzE4LjcwMjQgMjIuNjA2MSAxOC41NjE4IDIzLjI5MTcgMTguNTYxOCAyNC4wM0MxOC41NjE4IDI0Ljc2ODIgMTguNzAyNCAyNS40NzE0IDE4Ljk4MzcgMjYuMTM5M0MxOS4yNjQ5IDI2Ljc3MjIgMTkuNjUxNyAyNy4zMzQ3IDIwLjE0MzggMjcuODI2OEMyMC42MzYgMjguMzE5IDIxLjE5ODUgMjguNzA1NyAyMS44MzEzIDI4Ljk4N0MyMS45NjcxIDI5LjA0NDIgMjIuMTA0MyAyOS4wOTU1IDIyLjI0MjkgMjkuMTQxTDIyLjI0MjkgMzcuNDA4NVoiIGNsaXAtcnVsZT0iZXZlbm9kZCIgZmlsbC1ydWxlPSJldmVub2RkIi8+JiN4YTs8cGF0aCBmaWxsPSJ1cmwoI3BhaW50Ml9yYWRpYWxfMjYyMl8zOTY3KSIgZD0iTTI2LjYzMDQgMjQuOTMzOEMyNS42OTg1IDI0LjkzMzggMjQuOTQyOSAyNS42ODk0IDI0Ljk0MjkgMjYuNjIxM1YzNS44MDcyQzI0Ljk0MjkgMzYuNzM5MiAyNS42OTg1IDM3LjQ5NDcgMjYuNjMwNCAzNy40OTQ3SDM2Ljc4MjVDMzcuNzE0NSAzNy40OTQ3IDM4LjQ3IDM2LjczOTIgMzguNDcgMzUuODA3MlYyNi42MjEzQzM4LjQ3IDI1LjY4OTQgMzcuNzE0NSAyNC45MzM4IDM2Ljc4MjUgMjQuOTMzOEgyNi42MzA0Wk0zMS43MDc2IDI3LjQ3MTRDMzEuNzA3NiAyNy44OTg2IDMxLjM2MTMgMjguMjQ1IDMwLjkzNDEgMjguMjQ1QzMwLjUwNjggMjguMjQ1IDMwLjE2MDUgMjcuODk4NiAzMC4xNjA1IDI3LjQ3MTRDMzAuMTYwNSAyNy4wNDQyIDMwLjUwNjggMjYuNjk3OSAzMC45MzQxIDI2LjY5NzlDMzEuMzYxMyAyNi42OTc5IDMxLjcwNzYgMjcuMDQ0MiAzMS43MDc2IDI3LjQ3MTRaTTM0LjAyNjYgMjcuNDcxNEMzNC4wMjY2IDI3Ljg5ODYgMzMuNjgwMiAyOC4yNDUgMzMuMjUzIDI4LjI0NUMzMi44MjU4IDI4LjI0NSAzMi40Nzk1IDI3Ljg5ODYgMzIuNDc5NSAyNy40NzE0QzMyLjQ3OTUgMjcuMDQ0MiAzMi44MjU4IDI2LjY5NzkgMzMuMjUzIDI2LjY5NzlDMzMuNjgwMiAyNi42OTc5IDM0LjAyNjYgMjcuMDQ0MiAzNC4wMjY2IDI3LjQ3MTRaTTM1LjU3MTkgMjguMjQ1QzM1Ljk5OTEgMjguMjQ1IDM2LjM0NTUgMjcuODk4NiAzNi4zNDU1IDI3LjQ3MTRDMzYuMzQ1NSAyNy4wNDQyIDM1Ljk5OTEgMjYuNjk3OSAzNS41NzE5IDI2LjY5NzlDMzUuMTQ0NyAyNi42OTc5IDM0Ljc5ODQgMjcuMDQ0MiAzNC43OTg0IDI3LjQ3MTRDMzQuNzk4NCAyNy44OTg2IDM1LjE0NDcgMjguMjQ1IDM1LjU3MTkgMjguMjQ1Wk0yNi44NzU0IDMxLjEwOTNDMjYuODc1NCAzMC44OTU5IDI3LjA0ODQgMzAuNzIyOCAyNy4yNjE5IDMwLjcyMjhIMzYuMTUxMUMzNi4zNjQ2IDMwLjcyMjggMzYuNTM3NiAzMC44OTU5IDM2LjUzNzYgMzEuMTA5M1YzNC45Nzc3QzM2LjUzNzYgMzUuMTkxMSAzNi4zNjQ2IDM1LjM2NDEgMzYuMTUxMSAzNS4zNjQxSDI3LjI2MTlDMjcuMDQ4NCAzNS4zNjQxIDI2Ljg3NTQgMzUuMTkxMSAyNi44NzU0IDM0Ljk3NzdWMzEuMTA5M1oiIGNsaXAtcnVsZT0iZXZlbm9kZCIgZmlsbC1ydWxlPSJldmVub2RkIi8+JiN4YTs8L2c+JiN4YTs8L2c+JiN4YTs8ZGVmcz4mI3hhOzxsaW5lYXJHcmFkaWVudCBncmFkaWVudFVuaXRzPSJ1c2VyU3BhY2VPblVzZSIgeTI9IjQ0LjI3OTIiIHgyPSI0MS41NjQ1IiB5MT0iNi44NDc3NSIgeDE9IjQuODUyODciIGlkPSJwYWludDBfbGluZWFyXzI2MjJfMzk2NyI+JiN4YTs8c3RvcCBzdG9wLWNvbG9yPSJ3aGl0ZSIvPiYjeGE7PHN0b3Agc3RvcC1jb2xvcj0iI0VBRUNFRSIgb2Zmc2V0PSIxIi8+JiN4YTs8L2xpbmVhckdyYWRpZW50PiYjeGE7PHJhZGlhbEdyYWRpZW50IGdyYWRpZW50VHJhbnNmb3JtPSJ0cmFuc2xhdGUoMTUuMzYzNSAxNC40NzY1KSByb3RhdGUoNDcuNDU1Nykgc2NhbGUoMjUuNTQwNCA0OC4wODI0KSIgZ3JhZGllbnRVbml0cz0idXNlclNwYWNlT25Vc2UiIHI9IjEiIGN5PSIwIiBjeD0iMCIgaWQ9InBhaW50MV9yYWRpYWxfMjYyMl8zOTY3Ij4mI3hhOzxzdG9wIHN0b3AtY29sb3I9IiMwMTk1RkYiLz4mI3hhOzxzdG9wIHN0b3AtY29sb3I9IiMxMTQ3RTkiIG9mZnNldD0iMSIvPiYjeGE7PC9yYWRpYWxHcmFkaWVudD4mI3hhOzxyYWRpYWxHcmFkaWVudCBncmFkaWVudFRyYW5zZm9ybT0idHJhbnNsYXRlKDI3LjA5NTcgMjYuODE5KSByb3RhdGUoNDIuODc4OSkgc2NhbGUoMTIuOTI3NCAxNS42NDYyKSIgZ3JhZGllbnRVbml0cz0idXNlclNwYWNlT25Vc2UiIHI9IjEiIGN5PSIwIiBjeD0iMCIgaWQ9InBhaW50Ml9yYWRpYWxfMjYyMl8zOTY3Ij4mI3hhOzxzdG9wIHN0b3AtY29sb3I9IiMwMEJCRkYiLz4mI3hhOzxzdG9wIHN0b3AtY29sb3I9IiMwMDhCRkYiIG9mZnNldD0iMSIvPiYjeGE7PC9yYWRpYWxHcmFkaWVudD4mI3hhOzxjbGlwUGF0aCBpZD0iY2xpcDBfMjYyMl8zOTY3Ij4mI3hhOzxyZWN0IHRyYW5zZm9ybT0idHJhbnNsYXRlKDAuNSAwLjAzNDkxMjEpIiBmaWxsPSJ3aGl0ZSIgaGVpZ2h0PSI0OCIgd2lkdGg9IjQ4Ii8+JiN4YTs8L2NsaXBQYXRoPiYjeGE7PGNsaXBQYXRoIGlkPSJjbGlwMV8yNjIyXzM5NjciPiYjeGE7PHJlY3QgdHJhbnNmb3JtPSJ0cmFuc2xhdGUoMTEuNSAxMC41MzQ5KSIgZmlsbD0id2hpdGUiIGhlaWdodD0iMjciIHdpZHRoPSIyNyIvPiYjeGE7PC9jbGlwUGF0aD4mI3hhOzwvZGVmcz4mI3hhOzwvc3ZnPg==;points=[[0,0,0,0,0],[0,0.25,0,0,0],[0,0.5,0,0,0],[0,0.75,0,0,0],[0,1,0,-45,66],[0.25,0,0,0,0],[0.5,0,0,0,0],[0.75,0,0,0,0],[1,0,0,0,0],[1,0.25,0,0,0],[1,0.5,0,0,0],[1,0.75,0,0,0],[1,1,0,167,59],[1,1,0,185,119],[1,1,0,227,108],[1,1,0,253,92]];" parent="9CCtWQhPG5mtvw0bM8_H-1" vertex="1">
          <mxGeometry x="431.72" y="494.1399999999999" width="49" height="49" as="geometry" />
        </mxCell>
        <mxCell id="qwzbI1k6aY971nKIEggI-64" value="" style="rounded=1;whiteSpace=wrap;html=1;strokeColor=#0070F2;strokeWidth=1.5;arcSize=16;fillColor=#FFFFFF;perimeterSpacing=0;absoluteArcSize=1;" parent="9CCtWQhPG5mtvw0bM8_H-1" vertex="1">
          <mxGeometry x="556.22" y="480" width="170.00000000000003" height="120" as="geometry" />
        </mxCell>
        <mxCell id="qwzbI1k6aY971nKIEggI-65" value="&lt;span style=&quot;font-size: 15px; font-weight: 700;&quot;&gt;&lt;font color=&quot;#1d2d3e&quot;&gt;SAP BTP application&lt;/font&gt;&lt;/span&gt;" style="text;whiteSpace=wrap;html=1;align=center;" parent="9CCtWQhPG5mtvw0bM8_H-1" vertex="1">
          <mxGeometry x="566.0614965986395" y="543.144936086529" width="150.3979591836735" height="45.55555555555556" as="geometry" />
        </mxCell>
        <mxCell id="qwzbI1k6aY971nKIEggI-66" value="" style="shape=image;verticalLabelPosition=bottom;verticalAlign=top;imageAspect=0;aspect=fixed;image=data:image/svg+xml,PHN2ZyB4bWxucz0iaHR0cDovL3d3dy53My5vcmcvMjAwMC9zdmciIGZpbGw9Im5vbmUiIHZpZXdCb3g9IjAgMCA0OSA0OSIgaGVpZ2h0PSI0OSIgd2lkdGg9IjQ5Ij4mI3hhOzxnIGNsaXAtcGF0aD0idXJsKCNjbGlwMF8yNjIyXzM5NjcpIj4mI3hhOzxjaXJjbGUgc3Ryb2tlLXdpZHRoPSIwLjg1NzE0MyIgc3Ryb2tlPSIjRDVEQUREIiBmaWxsPSJ1cmwoI3BhaW50MF9saW5lYXJfMjYyMl8zOTY3KSIgcj0iMjMuNTcxNCIgY3k9IjI0LjAzNDkiIGN4PSIyNC41Ii8+JiN4YTs8ZyBjbGlwLXBhdGg9InVybCgjY2xpcDFfMjYyMl8zOTY3KSI+JiN4YTs8cGF0aCBmaWxsPSJ1cmwoI3BhaW50MV9yYWRpYWxfMjYyMl8zOTY3KSIgZD0iTTIyLjI0MjkgMzcuNDA4NUMyMS45MTMzIDM3LjMwNDcgMjEuNjAwMyAzNy4xMzQyIDIxLjMwNCAzNi44OTcyQzIwLjgxMTggMzYuNTEwNCAyMC41MTMgMzYuMDAwNyAyMC40MDc1IDM1LjM2NzlMMjAuMDM4NCAzMy42Mjc2TDE3Ljc3MDggMzIuMjU2NUwxNi4xODg4IDMyLjk0MjFDMTUuODM3MiAzMy4wNDc1IDE1LjUwMzIgMzMuMTAwMyAxNS4xODY4IDMzLjEwMDNDMTQuNjk0NiAzMy4xMDAzIDE0LjIyIDMyLjk3NzIgMTMuNzYzIDMyLjczMTFDMTMuMzQxMSAzMi40ODUgMTMuMDA3MSAzMi4xMTU5IDEyLjc2MSAzMS42MjM3TDExLjc1OTEgMjkuNjcyNUMxMS41ODMzIDI5LjI1MDcgMTEuNDk1NCAyOC44NjQgMTEuNDk1NCAyOC41MTI0QzExLjQ5NTQgMjcuNTk4MyAxMS44NjQ2IDI2Ljg2IDEyLjYwMjggMjYuMjk3NUwxMy44MTU3IDI1LjQwMTFWMjIuNjU4OUwxMi41NTAxIDIxLjcwOTdDMTEuODQ3IDIxLjE4MjMgMTEuNDk1NCAyMC40NjE2IDExLjQ5NTQgMTkuNTQ3NUMxMS40OTU0IDE5LjE5NiAxMS41ODMzIDE4LjgwOTMgMTEuNzU5MSAxOC4zODc0TDEyLjc2MSAxNi40MzYyQzEzLjAwNzEgMTUuOTQ0IDEzLjM0MTEgMTUuNTc0OSAxMy43NjMgMTUuMzI4OEMxNC4yMiAxNS4wODI3IDE0LjY5NDYgMTQuOTU5NyAxNS4xODY4IDE0Ljk1OTdDMTUuNTczNSAxNC45NTk3IDE1LjkwNzUgMTUuMDMgMTYuMTg4OCAxNS4xNzA2TDE3Ljc3MDggMTUuODAzNEwyMC4wMzg0IDE0LjQzMjNMMjAuNDA3NSAxMi42OTIxQzIwLjU0ODEgMTIuMDU5MyAyMC44NjQ1IDExLjU0OTUgMjEuMzU2NyAxMS4xNjI4QzIxLjg0ODkgMTAuNzQwOSAyMi40MTE0IDEwLjUzIDIzLjA0NDIgMTAuNTNIMjQuODg5OUMyNS41MjI3IDEwLjUzIDI2LjA4NTIgMTAuNzQwOSAyNi41Nzc0IDExLjE2MjhDMjcuMDY5NiAxMS41NDk1IDI3LjM4NiAxMi4wNTkzIDI3LjUyNjYgMTIuNjkyMUwyNy44NDMgMTQuNDMyM0wzMC4xNjM0IDE1LjgwMzRMMzEuNzQ1NCAxNS4xNzA2QzMyLjAyNjYgMTUuMDMgMzIuMzYwNiAxNC45NTk3IDMyLjc0NzMgMTQuOTU5N0MzMy4yMzk1IDE0Ljk1OTcgMzMuNjk2NiAxNS4wODI3IDM0LjExODQgMTUuMzI4OEMzNC41NzU1IDE1LjU3NDkgMzQuOTI3IDE1Ljk0NCAzNS4xNzMxIDE2LjQzNjJMMzYuMTIyMyAxOC4zODc0QzM2LjMzMzMgMTguNzM5IDM2LjQzODcgMTkuMTQzMiAzNi40Mzg3IDE5LjYwMDNDMzYuNDM4NyAyMC40NzkyIDM2LjA2OTYgMjEuMTgyMyAzNS4zMzEzIDIxLjcwOTdMMzQuNjMyMyAyMi4yMzM5SDI5LjA1NzJDMjkuMDI0MiAyMi4xNDYxIDI4Ljk4ODYgMjIuMDU5MiAyOC45NTA1IDIxLjk3MzNDMjguNjY5MiAyMS4zMDU0IDI4LjI4MjUgMjAuNzI1MyAyNy43OTAzIDIwLjIzMzFDMjcuMjk4MSAxOS43NDA5IDI2LjcxODEgMTkuMzU0MiAyNi4wNTAxIDE5LjA3MjlDMjUuMzgyMSAxOC43OTE3IDI0LjY3OSAxOC42NTExIDIzLjk0MDcgMTguNjUxMUMyMy4yMDI0IDE4LjY1MTEgMjIuNDk5MyAxOC43OTE3IDIxLjgzMTMgMTkuMDcyOUMyMS4xOTg1IDE5LjM1NDIgMjAuNjM2IDE5Ljc0MDkgMjAuMTQzOCAyMC4yMzMxQzE5LjY1MTcgMjAuNzI1MyAxOS4yNjQ5IDIxLjMwNTQgMTguOTgzNyAyMS45NzMzQzE4LjcwMjQgMjIuNjA2MSAxOC41NjE4IDIzLjI5MTcgMTguNTYxOCAyNC4wM0MxOC41NjE4IDI0Ljc2ODIgMTguNzAyNCAyNS40NzE0IDE4Ljk4MzcgMjYuMTM5M0MxOS4yNjQ5IDI2Ljc3MjIgMTkuNjUxNyAyNy4zMzQ3IDIwLjE0MzggMjcuODI2OEMyMC42MzYgMjguMzE5IDIxLjE5ODUgMjguNzA1NyAyMS44MzEzIDI4Ljk4N0MyMS45NjcxIDI5LjA0NDIgMjIuMTA0MyAyOS4wOTU1IDIyLjI0MjkgMjkuMTQxTDIyLjI0MjkgMzcuNDA4NVoiIGNsaXAtcnVsZT0iZXZlbm9kZCIgZmlsbC1ydWxlPSJldmVub2RkIi8+JiN4YTs8cGF0aCBmaWxsPSJ1cmwoI3BhaW50Ml9yYWRpYWxfMjYyMl8zOTY3KSIgZD0iTTI2LjYzMDQgMjQuOTMzOEMyNS42OTg1IDI0LjkzMzggMjQuOTQyOSAyNS42ODk0IDI0Ljk0MjkgMjYuNjIxM1YzNS44MDcyQzI0Ljk0MjkgMzYuNzM5MiAyNS42OTg1IDM3LjQ5NDcgMjYuNjMwNCAzNy40OTQ3SDM2Ljc4MjVDMzcuNzE0NSAzNy40OTQ3IDM4LjQ3IDM2LjczOTIgMzguNDcgMzUuODA3MlYyNi42MjEzQzM4LjQ3IDI1LjY4OTQgMzcuNzE0NSAyNC45MzM4IDM2Ljc4MjUgMjQuOTMzOEgyNi42MzA0Wk0zMS43MDc2IDI3LjQ3MTRDMzEuNzA3NiAyNy44OTg2IDMxLjM2MTMgMjguMjQ1IDMwLjkzNDEgMjguMjQ1QzMwLjUwNjggMjguMjQ1IDMwLjE2MDUgMjcuODk4NiAzMC4xNjA1IDI3LjQ3MTRDMzAuMTYwNSAyNy4wNDQyIDMwLjUwNjggMjYuNjk3OSAzMC45MzQxIDI2LjY5NzlDMzEuMzYxMyAyNi42OTc5IDMxLjcwNzYgMjcuMDQ0MiAzMS43MDc2IDI3LjQ3MTRaTTM0LjAyNjYgMjcuNDcxNEMzNC4wMjY2IDI3Ljg5ODYgMzMuNjgwMiAyOC4yNDUgMzMuMjUzIDI4LjI0NUMzMi44MjU4IDI4LjI0NSAzMi40Nzk1IDI3Ljg5ODYgMzIuNDc5NSAyNy40NzE0QzMyLjQ3OTUgMjcuMDQ0MiAzMi44MjU4IDI2LjY5NzkgMzMuMjUzIDI2LjY5NzlDMzMuNjgwMiAyNi42OTc5IDM0LjAyNjYgMjcuMDQ0MiAzNC4wMjY2IDI3LjQ3MTRaTTM1LjU3MTkgMjguMjQ1QzM1Ljk5OTEgMjguMjQ1IDM2LjM0NTUgMjcuODk4NiAzNi4zNDU1IDI3LjQ3MTRDMzYuMzQ1NSAyNy4wNDQyIDM1Ljk5OTEgMjYuNjk3OSAzNS41NzE5IDI2LjY5NzlDMzUuMTQ0NyAyNi42OTc5IDM0Ljc5ODQgMjcuMDQ0MiAzNC43OTg0IDI3LjQ3MTRDMzQuNzk4NCAyNy44OTg2IDM1LjE0NDcgMjguMjQ1IDM1LjU3MTkgMjguMjQ1Wk0yNi44NzU0IDMxLjEwOTNDMjYuODc1NCAzMC44OTU5IDI3LjA0ODQgMzAuNzIyOCAyNy4yNjE5IDMwLjcyMjhIMzYuMTUxMUMzNi4zNjQ2IDMwLjcyMjggMzYuNTM3NiAzMC44OTU5IDM2LjUzNzYgMzEuMTA5M1YzNC45Nzc3QzM2LjUzNzYgMzUuMTkxMSAzNi4zNjQ2IDM1LjM2NDEgMzYuMTUxMSAzNS4zNjQxSDI3LjI2MTlDMjcuMDQ4NCAzNS4zNjQxIDI2Ljg3NTQgMzUuMTkxMSAyNi44NzU0IDM0Ljk3NzdWMzEuMTA5M1oiIGNsaXAtcnVsZT0iZXZlbm9kZCIgZmlsbC1ydWxlPSJldmVub2RkIi8+JiN4YTs8L2c+JiN4YTs8L2c+JiN4YTs8ZGVmcz4mI3hhOzxsaW5lYXJHcmFkaWVudCBncmFkaWVudFVuaXRzPSJ1c2VyU3BhY2VPblVzZSIgeTI9IjQ0LjI3OTIiIHgyPSI0MS41NjQ1IiB5MT0iNi44NDc3NSIgeDE9IjQuODUyODciIGlkPSJwYWludDBfbGluZWFyXzI2MjJfMzk2NyI+JiN4YTs8c3RvcCBzdG9wLWNvbG9yPSJ3aGl0ZSIvPiYjeGE7PHN0b3Agc3RvcC1jb2xvcj0iI0VBRUNFRSIgb2Zmc2V0PSIxIi8+JiN4YTs8L2xpbmVhckdyYWRpZW50PiYjeGE7PHJhZGlhbEdyYWRpZW50IGdyYWRpZW50VHJhbnNmb3JtPSJ0cmFuc2xhdGUoMTUuMzYzNSAxNC40NzY1KSByb3RhdGUoNDcuNDU1Nykgc2NhbGUoMjUuNTQwNCA0OC4wODI0KSIgZ3JhZGllbnRVbml0cz0idXNlclNwYWNlT25Vc2UiIHI9IjEiIGN5PSIwIiBjeD0iMCIgaWQ9InBhaW50MV9yYWRpYWxfMjYyMl8zOTY3Ij4mI3hhOzxzdG9wIHN0b3AtY29sb3I9IiMwMTk1RkYiLz4mI3hhOzxzdG9wIHN0b3AtY29sb3I9IiMxMTQ3RTkiIG9mZnNldD0iMSIvPiYjeGE7PC9yYWRpYWxHcmFkaWVudD4mI3hhOzxyYWRpYWxHcmFkaWVudCBncmFkaWVudFRyYW5zZm9ybT0idHJhbnNsYXRlKDI3LjA5NTcgMjYuODE5KSByb3RhdGUoNDIuODc4OSkgc2NhbGUoMTIuOTI3NCAxNS42NDYyKSIgZ3JhZGllbnRVbml0cz0idXNlclNwYWNlT25Vc2UiIHI9IjEiIGN5PSIwIiBjeD0iMCIgaWQ9InBhaW50Ml9yYWRpYWxfMjYyMl8zOTY3Ij4mI3hhOzxzdG9wIHN0b3AtY29sb3I9IiMwMEJCRkYiLz4mI3hhOzxzdG9wIHN0b3AtY29sb3I9IiMwMDhCRkYiIG9mZnNldD0iMSIvPiYjeGE7PC9yYWRpYWxHcmFkaWVudD4mI3hhOzxjbGlwUGF0aCBpZD0iY2xpcDBfMjYyMl8zOTY3Ij4mI3hhOzxyZWN0IHRyYW5zZm9ybT0idHJhbnNsYXRlKDAuNSAwLjAzNDkxMjEpIiBmaWxsPSJ3aGl0ZSIgaGVpZ2h0PSI0OCIgd2lkdGg9IjQ4Ii8+JiN4YTs8L2NsaXBQYXRoPiYjeGE7PGNsaXBQYXRoIGlkPSJjbGlwMV8yNjIyXzM5NjciPiYjeGE7PHJlY3QgdHJhbnNmb3JtPSJ0cmFuc2xhdGUoMTEuNSAxMC41MzQ5KSIgZmlsbD0id2hpdGUiIGhlaWdodD0iMjciIHdpZHRoPSIyNyIvPiYjeGE7PC9jbGlwUGF0aD4mI3hhOzwvZGVmcz4mI3hhOzwvc3ZnPg==;points=[[0,0,0,0,0],[0,0.25,0,0,0],[0,0.5,0,0,0],[0,0.75,0,0,0],[0,1,0,-45,66],[0.25,0,0,0,0],[0.5,0,0,0,0],[0.75,0,0,0,0],[1,0,0,0,0],[1,0.25,0,0,0],[1,0.5,0,0,0],[1,0.75,0,0,0],[1,1,0,167,59],[1,1,0,185,119],[1,1,0,227,108],[1,1,0,253,92]];" parent="9CCtWQhPG5mtvw0bM8_H-1" vertex="1">
          <mxGeometry x="616.72" y="494.1399999999999" width="49" height="49" as="geometry" />
        </mxCell>
        <mxCell id="qwzbI1k6aY971nKIEggI-68" value="" style="shape=image;verticalLabelPosition=bottom;labelBackgroundColor=default;verticalAlign=top;aspect=fixed;imageAspect=0;image=data:image/svg+xml,PHN2ZyB4bWxuczp4bGluaz0iaHR0cDovL3d3dy53My5vcmcvMTk5OS94bGluayIgeG1sbnM9Imh0dHA6Ly93d3cudzMub3JnLzIwMDAvc3ZnIiB2aWV3Qm94PSIwIDAgMTQ0Ljc0NyAzOS44MzIiIGlkPSJhIj48ZGVmcz48bGluZWFyR3JhZGllbnQgZ3JhZGllbnRVbml0cz0idXNlclNwYWNlT25Vc2UiIHkyPSIzOS44MzIiIHgyPSI0MC4yNTgiIHkxPSIwIiB4MT0iNDAuMjU4IiBpZD0iYiI+PHN0b3Agc3RvcC1jb2xvcj0iIzAwYjhmMSIgb2Zmc2V0PSIwIi8+PHN0b3Agc3RvcC1jb2xvcj0iIzAwYjVlZiIgb2Zmc2V0PSIuMDE2Ii8+PHN0b3Agc3RvcC1jb2xvcj0iIzBkOTBkOCIgb2Zmc2V0PSIuMzA4Ii8+PHN0b3Agc3RvcC1jb2xvcj0iIzE2NzVjOCIgb2Zmc2V0PSIuNTc4Ii8+PHN0b3Agc3RvcC1jb2xvcj0iIzFjNjRiZSIgb2Zmc2V0PSIuODE3Ii8+PHN0b3Agc3RvcC1jb2xvcj0iIzFlNWZiYiIgb2Zmc2V0PSIxIi8+PC9saW5lYXJHcmFkaWVudD48L2RlZnM+PHBvbHlsaW5lIGZpbGwtcnVsZT0iZXZlbm9kZCIgZmlsbD0idXJsKCNiKSIgcG9pbnRzPSIwIDM5LjgzMiA0MC42OTIgMzkuODMyIDgwLjUxNyAwIDAgMCAwIDM5LjgzMiIvPjxwYXRoIGZpbGwtcnVsZT0iZXZlbm9kZCIgZmlsbD0iI2ZmZiIgZD0ibTQ3Ljc4Miw3LjQ4OWwtNy45MjUtLjAwNXYxOC44NDVsLTYuOTI0LTE4Ljg0NWgtNi44NjVsLTUuOTEyLDE1Ljc1OWMtLjYzLTMuOTczLTQuNzQtNS4zNDUtNy45NzQtNi4zNzQtMi4xMzUtLjY4Ni00LjQwMS0xLjY5NC00LjM4LTIuODA5LjAxNy0uOTE1LDEuMjE1LTEuNzY1LDMuNTg5LTEuNjM3LDEuNTk1LjA4NCwzLjAwMS4yMTMsNS44LDEuNTYzbDIuNzUzLTQuNzk1Yy0yLjU1NS0xLjMtNi4wODYtMi4xMjEtOC45NzgtMi4xMjRoLS4wMTdjLTMuMzc0LDAtNi4xODUsMS4wOTMtNy45MjgsMi44OTQtMS4yMTQsMS4yNTgtMS44NjksMi44NTYtMS44OTYsNC42MjMtLjA0NCwyLjQzMi44NDgsNC4xNTcsMi43MjEsNS41MzMsMS41ODMsMS4xNiwzLjYwNiwxLjkxMiw1LjM5LDIuNDY1LDIuMjAxLjY4MSwzLjk5NiwxLjI3NCwzLjk3NSwyLjUzOS0uMDE2LjQ1OS0uMTkxLjg4OC0uNTIxLDEuMjM2LS41NDguNTY2LTEuMzkxLjc3OS0yLjU1NS43OTktMi4yNDQuMDQ4LTMuOTEtLjMwMy02LjU2Mi0xLjg3bC0yLjQ0OCw0Ljg2MWMyLjY0NCwxLjUwNiw1Ljc3NiwyLjM4OCw4Ljk3MiwyLjM4OGwuNDExLS4wMDZjMi43ODItLjA1LDUuMDI2LS44NDIsNi44Mi0yLjI4Ni4xMDMtLjA4MS4xOTYtLjE2Ni4yOTEtLjI1bC0uNzk1LDIuMTIzaDcuMmwxLjIwOC0zLjY3NGMxLjI2NS40MzMsMi43MDQuNjcxLDQuMjMyLjY3MSwxLjQ4NywwLDIuODg5LS4yMjksNC4xMzEtLjYzNWwxLjE2NCwzLjYzN2gxMS43NDJ2LTcuNjA3aDIuNTYxYzYuMTg4LDAsOS44NTEtMy4xNTQsOS44NTEtOC40MzYsMC01Ljg4NS0zLjU1Ny04LjU4NS0xMS4xMzItOC41ODVabS0xOC4zMTcsMTYuMTI0Yy0uOTI1LDAtMS43OTItLjE2LTIuNTM5LS40NDNsMi41MTItNy45MjZoLjA0OGwyLjQ2OCw3Ljk0OGMtLjc0Mi4yNjMtMS41ODkuNDIxLTIuNDg4LjQyMVptMTguNzgzLTQuNTUzaC0xLjc0NnYtNi4zODZoMS43NDZjMi4zMjgsMCw0LjE4NS43NzMsNC4xODUsMy4xNTEsMCwyLjQ2MS0xLjg1NywzLjIzNi00LjE4NSwzLjIzNiIvPjxwYXRoIGZpbGw9IiMwMDJhODYiIGQ9Im04MC4yMTcsNy40MDFoMTAuMDYzYzUuNTk1LDAsOC42NzQsMS45MTcsOC42NzQsNi4xNTgsMCwyLjkwMy0xLjUxMyw1LjAxNC00LjMxMSw1LjcsMy4yOS40NTgsNS4yNzgsMi41ODYsNS4yNzgsNS44OTQsMCw1LjAxNC00LjA2NCw3LjAzNy05LjE4NCw3LjAzN2gtMTAuNTIxVjcuNDAxWm0xMy45NjksNi44MjZjMC0yLjE2NC0xLjQ5Ni0yLjk3My00LjI0LTIuOTczaC01LjA0OXY2LjI5OGg0Ljg5MWMzLjIwMiwwLDQuMzk4LTEuMTYxLDQuMzk4LTMuMzI1Wm0xLjAyMSwxMC41MjFjMC0yLjM1Ny0xLjc3Ny0zLjQ2Ni00LjgzOS0zLjQ2NmgtNS40NzF2Ny4wNTVoNS41MDZjMi44MTUsMCw0LjgwNC0uNzc0LDQuODA0LTMuNTg5WiIvPjxwYXRoIGZpbGw9IiMwMDJhODYiIGQ9Im0xMDkuMDUxLDExLjVoLTcuNTgzdi00LjA5OWgxOS44NDZ2NC4wOTloLTcuNTY1djIwLjY5aC00LjY5N1YxMS41WiIvPjxwYXRoIGZpbGw9IiMwMDJhODYiIGQ9Im0xMjUuMTQ4LDcuNDAxaDEwLjUwNGM2LjE5MiwwLDkuMDk2LDMuMTg1LDkuMDk2LDcuODk5LDAsNC4zOTgtMi44MzMsOC4xNDYtOC44NSw4LjE0NmgtNi4wN3Y4Ljc0NGgtNC42OFY3LjQwMVptMTQuOTAyLDcuOTUyYzAtMi41NTEtMS42ODktMy45MjMtNC45NDQtMy45MjNoLTUuMjc4djguMDRoNS40MTljMy4yNzIsMCw0LjgwNC0xLjU4Myw0LjgwNC00LjExN1oiLz48L3N2Zz4=;strokeWidth=1.5;" parent="9CCtWQhPG5mtvw0bM8_H-1" vertex="1">
          <mxGeometry x="369.99999999999994" y="96.81000000000006" width="67.25" height="18.55" as="geometry" />
        </mxCell>
        <mxCell id="qwzbI1k6aY971nKIEggI-69" value="&lt;font face=&quot;arial&quot; style=&quot;font-size: 16px;&quot;&gt;&lt;b style=&quot;font-size: 16px;&quot;&gt;SAP Cloud Identity Services&lt;/b&gt;&lt;/font&gt;" style="text;html=1;align=left;verticalAlign=middle;resizable=0;points=[];autosize=1;strokeColor=none;fillColor=none;fontSize=12;fontColor=#1d2d3e;fontFamily=Helvetica;" parent="9CCtWQhPG5mtvw0bM8_H-1" vertex="1">
          <mxGeometry x="381.06000000000006" y="144.14" width="240" height="30" as="geometry" />
        </mxCell>
      </root>
    </mxGraphModel>
  </diagram>
</mxfile>
